<svg xmlns="http://www.w3.org/2000/svg" viewBox="0 0 448.48 92"><defs><style>.cls-1{font-size:80px;fill:#1b3955;font-family:Montserrat-SemiBold, Montserrat;font-weight:700;}.cls-2{letter-spacing:-0.01em;}.cls-3{letter-spacing:-0.07em;}.cls-4{letter-spacing:-0.02em;}.cls-5{letter-spacing:-0.04em;}.cls-11,.cls-6{fill:none;stroke-linecap:round;stroke-miterlimit:10;stroke-width:2px;stroke-dasharray:6 6;}.cls-6{stroke:#fff;}.cls-7{fill:#a8a1e2;}.cls-8{fill:#f47056;}.cls-9{fill:#0092dd;}.cls-10{fill:#fff;}.cls-11{stroke:#15afe5;}</style></defs><title>contacto</title><g id="Layer_1" data-name="Layer 1"><text class="cls-1" transform="translate(0 68)"><tspan class="cls-2">C</tspan><tspan x="54.48" y="0">ON</tspan><tspan class="cls-3" x="182" y="0">T</tspan><tspan class="cls-4" x="224.24" y="0">A</tspan><tspan x="283.44" y="0">C</tspan><tspan class="cls-5" x="338.96" y="0">T</tspan><tspan x="384" y="0">O</tspan></text><g id="_Group_" data-name="&lt;Group&gt;"><path id="_Path_" data-name="&lt;Path&gt;" class="cls-6" d="M1130.37,649.86A22.13,22.13,0,0,1,1108.24,672" transform="translate(-1019.66 -609.5)"/></g><g id="_Group_2" data-name="&lt;Group&gt;"><path id="_Path_2" data-name="&lt;Path&gt;" class="cls-6" d="M1312.19,648.13A22.13,22.13,0,0,1,1334.32,626" transform="translate(-1019.66 -609.5)"/></g><g id="_Group_3" data-name="&lt;Group&gt;"><path id="_Path_3" data-name="&lt;Path&gt;" class="cls-6" d="M1439.19,627.74a22.13,22.13,0,0,1,22.13,22.13" transform="translate(-1019.66 -609.5)"/></g><rect id="_Rectangle_" data-name="&lt;Rectangle&gt;" class="cls-7" x="1373.01" y="647.01" width="18.64" height="5.33" rx="1.81" ry="1.81" transform="translate(-1020.43 -607.86) rotate(-0.07)"/><path class="cls-8" d="M1418.68,649.68c0,9,7.6,17.36,17,17.36a17.23,17.23,0,0,0,17.28-17.36h13c0,16.32-13,28.4-30.08,28.4s-30.08-12.16-30.08-28.4Z" transform="translate(-1019.66 -609.5)"/><path class="cls-8" d="M1034.8,649.68A16.57,16.57,0,0,0,1051.58,666a20.93,20.93,0,0,0,14.8-6.14l7.54,8.13a32,32,0,0,1-23.37,10.05c-17.12,0-28.89-12.16-28.89-28.4Z" transform="translate(-1019.66 -609.5)"/><rect id="_Rectangle_2" data-name="&lt;Rectangle&gt;" class="cls-9" x="1218.88" y="646.34" width="13.15" height="31" transform="translate(1431.25 714.19) rotate(180)"/><path id="_Path_4" data-name="&lt;Path&gt;" class="cls-10" d="M1220.76,665.13a.94.94,0,0,0,.94.94h0a.94.94,0,0,0,.94-.94V645.4a.94.94,0,0,0-.94-.94h0a.94.94,0,0,0-.94.94Z" transform="translate(-1019.66 -609.5)"/><rect id="_Rectangle_3" data-name="&lt;Rectangle&gt;" class="cls-7" x="1216.14" y="642.8" width="18.64" height="5.33" rx="1.81" ry="1.81" transform="translate(1431.25 681.43) rotate(180)"/><line id="_Path_5" data-name="&lt;Path&gt;" class="cls-11" x1="131.1" y1="10.27" x2="131.1" y2="70.09"/><line id="_Path_6" data-name="&lt;Path&gt;" class="cls-11" x1="254.1" y1="7.27" x2="254.1" y2="73.09"/></g></svg>