<svg id="bg" xmlns="http://www.w3.org/2000/svg" xmlns:xlink="http://www.w3.org/1999/xlink" viewBox="0 0 895.69 369.22"><defs><style>.cls-1{fill:#f47056;}.cls-18,.cls-19,.cls-2,.cls-22,.cls-23,.cls-27,.cls-28,.cls-29{fill:none;}.cls-3{font-size:43.81px;font-family:CircularStd-Black, CircularStd Black;letter-spacing:-0.05em;}.cls-12,.cls-3{fill:#064977;}.cls-4,.cls-6{letter-spacing:-0.03em;}.cls-5{letter-spacing:-0.06em;}.cls-13,.cls-6{fill:#0092dd;}.cls-7{letter-spacing:-0.11em;}.cls-8{letter-spacing:-0.05em;}.cls-9{letter-spacing:-0.03em;}.cls-10{letter-spacing:-0.07em;}.cls-11{letter-spacing:-0.03em;}.cls-14{fill:#15afe5;}.cls-15{fill:#fff;}.cls-16{fill:#ffc933;}.cls-17{fill:#f9a698;}.cls-18{stroke:#0c61a7;}.cls-18,.cls-19,.cls-22,.cls-23,.cls-27,.cls-28,.cls-29{stroke-linecap:round;stroke-miterlimit:10;stroke-width:2.04px;}.cls-18,.cls-19,.cls-27,.cls-29{stroke-dasharray:6.11 6.11;}.cls-19{stroke:#fff;}.cls-20{clip-path:url(#clip-path);}.cls-21{fill:#ffb89f;}.cls-22{stroke:#0092dd;}.cls-23,.cls-29{stroke:#222e3b;}.cls-23{stroke-dasharray:3.57 3.57;}.cls-24{fill:#ff834d;}.cls-25{clip-path:url(#clip-path-2);}.cls-26{clip-path:url(#clip-path-3);}.cls-27{stroke:#15afe5;}.cls-28{stroke:#ffb89f;}</style><clipPath id="clip-path" transform="translate(-4718.51 -551.1)"><polygon id="_Clipping_Path_" data-name="&lt;Clipping Path&gt;" class="cls-1" points="5172.6 737.54 5152.48 754.79 5212.84 754.79 5212.84 737.54 5172.6 737.54"/></clipPath><clipPath id="clip-path-2" transform="translate(-4718.51 -551.1)"><rect id="_Rectangle_" data-name="&lt;Rectangle&gt;" class="cls-2" x="5366.64" y="729.59" width="18.69" height="25.2"/></clipPath><clipPath id="clip-path-3" transform="translate(-4718.51 -551.1)"><rect id="_Rectangle_2" data-name="&lt;Rectangle&gt;" class="cls-2" x="5437.07" y="729.59" width="18.69" height="25.2"/></clipPath></defs><title>laciudadbig</title><text class="cls-3" transform="translate(283.21 312.64)">C<tspan class="cls-4" x="23.17" y="0">ONSTRUIR JUN</tspan><tspan class="cls-5" x="278.4" y="0">T</tspan><tspan class="cls-4" x="297.67" y="0">OS,</tspan><tspan class="cls-6"><tspan x="-41.55" y="45.63">UN ES</tspan><tspan class="cls-7" x="61.48" y="45.63">P</tspan><tspan class="cls-8" x="79.8" y="45.63">A</tspan><tspan class="cls-9" x="104.63" y="45.63">CIO</tspan><tspan class="cls-10" x="166.75" y="45.63"> </tspan><tspan class="cls-7" x="172.97" y="45.63">P</tspan><tspan x="191.29" y="45.63">A</tspan><tspan class="cls-11" x="216.78" y="45.63">R</tspan><tspan x="239.26" y="45.63">A</tspan><tspan class="cls-10" x="264.75" y="45.63"> </tspan><tspan class="cls-5" x="270.97" y="45.63">T</tspan><tspan x="290.25" y="45.63">ODOS</tspan></tspan></text><g id="_Group_" data-name="&lt;Group&gt;"><path id="_Path_" data-name="&lt;Path&gt;" class="cls-12" d="M5077.41,648.88c12.38,0,23.27-5.2,32.38-15.45l.44-.5-12.38-12.76-.51.63a25.55,25.55,0,0,1-20.78,10.06,21.5,21.5,0,0,1-15.72-6.49c-4.3-4.3-6.49-10.11-6.49-17.26s2.31-12.88,6.86-17.07a23.75,23.75,0,0,1,16.6-6.34c8.06,0,14.9,3.42,20.33,10.18l.53.66,12-13.6-.42-.48c-8.88-10-20.06-15.11-33.23-15.11a41.59,41.59,0,0,0-30.07,12c-8.17,8-12.31,18.06-12.31,30s4.06,21.92,12.08,29.75S5065.05,648.88,5077.41,648.88Z" transform="translate(-4718.51 -551.1)"/><path id="_Path_2" data-name="&lt;Path&gt;" class="cls-12" d="M5218.59,566.5h-20.12v45.22c0,6.16-1.32,11.07-4.12,14.59a13.45,13.45,0,0,1-11.25,5.23,12.94,12.94,0,0,1-11-5.24c-2.83-3.52-3.86-8.43-3.86-14.59V566.5h-20.12v45.79c0,11.58,3.41,20.65,9.92,27s15,9.51,25,9.51,18.86-3.18,25.32-9.45,10.17-15.37,10.17-27Z" transform="translate(-4718.51 -551.1)"/><path id="_Compound_Path_" data-name="&lt;Compound Path&gt;" class="cls-12" d="M5290.65,637.21c7.49-7.3,11.28-17.44,11.28-29.92s-3.9-22.79-11.59-29.82-18.79-11-33.06-11h-28.62v81.93h27.72C5271.63,648.43,5283.16,644.5,5290.65,637.21Zm-14.28-12.12c-4.19,3.94-10.31,6.09-18.18,6.09h-9.41V583.75h8c8.77,0,15.34,2.21,19.54,6.26s6.31,10.08,6.31,17.63S5280.55,621.16,5276.37,625.09Z" transform="translate(-4718.51 -551.1)"/><polygon id="_Path_3" data-name="&lt;Path&gt;" class="cls-12" points="189.61 170.63 224.11 170.63 224.11 154.82 189.61 154.82 189.61 140.44 228.42 140.44 228.42 123.19 169.49 123.19 169.49 203.69 229.86 203.69 229.86 186.44 189.61 186.44 189.61 170.63"/><path id="_Compound_Path_2" data-name="&lt;Compound Path&gt;" class="cls-12" d="M5285.12,700.78c0-9.42-2.75-16.08-8.16-20.37s-14.4-6.11-26.84-6.11H5220v80.49h18.69V728.92h10.91l17.6,25.87h23.56l-20.36-28.9C5280.17,721.93,5285.12,713.39,5285.12,700.78Zm-19.49.06c0,4-1,7.35-3.05,9.17s-6,3.11-11.89,3.11h-12v-23H5251c5.5,0,9.37.89,11.51,2.38S5265.63,696.82,5265.63,700.83Z" transform="translate(-4718.51 -551.1)"/><path id="_Path_4" data-name="&lt;Path&gt;" class="cls-12" d="M5607.72,714c-4.23-3.77-10.24-6.63-17.84-8.5-7.41-1.83-12.19-3.42-14.2-4.73a5.57,5.57,0,0,1-2.8-4.91,6.11,6.11,0,0,1,2.29-5,10,10,0,0,1,6.52-1.94c7.15,0,14.18,2.59,20.91,7.69l.6.45,9.77-14.1-.5-.42a43.49,43.49,0,0,0-14.08-7.85,49.66,49.66,0,0,0-16.13-2.76c-8.22,0-15.18,2.11-20.7,6.27s-8.4,10.27-8.4,18,2.25,13.48,6.68,17.13,11.26,6.5,20.55,8.71c5.71,1.41,9.56,2.8,11.45,4.15a5.89,5.89,0,0,1,2.65,5.09,6,6,0,0,1-2.5,5.1,11.83,11.83,0,0,1-7.23,2c-7.05,0-14.88-3.72-23.25-11.06l-.56-.49-11.45,14,.5.46c10.15,9.39,21.74,14.15,34.43,14.15,8.83,0,16.07-2.29,21.52-6.81a22.21,22.21,0,0,0,8.26-17.86C5614.2,723.45,5612,717.81,5607.72,714Z" transform="translate(-4718.51 -551.1)"/><g id="_Group_2" data-name="&lt;Group&gt;"><path id="_Path_5" data-name="&lt;Path&gt;" class="cls-12" d="M4860.69,718.26c0,6.16-1.35,11.07-4.15,14.59a13.48,13.48,0,0,1-11.27,5.23,12.9,12.9,0,0,1-10.93-5.24c-2.83-3.52-3.84-8.43-3.84-14.59v-44h-20.12v44.53c0,11.58,3.38,20.65,9.89,27s14.94,9.51,25,9.51,18.88-3.18,25.35-9.46,10.19-15.37,10.19-27V674.3h-20.12Z" transform="translate(-4718.51 -551.1)"/><rect id="_Rectangle_3" data-name="&lt;Rectangle&gt;" class="cls-13" x="91.87" y="123.19" width="20.12" height="33.15"/><rect id="_Rectangle_4" data-name="&lt;Rectangle&gt;" class="cls-14" x="91.87" y="123.19" width="20.12" height="10.06"/></g><g id="_Group_3" data-name="&lt;Group&gt;"><path id="_Compound_Path_3" data-name="&lt;Compound Path&gt;" class="cls-12" d="M4975.09,566.5H4957l-31.64,74.12v-9.44h-33.06V566.5h-20.12v81.93h70.33l7.38-17.25h32.32l7.38,17.25H5010Zm-.2,47.43h-17.68l8.89-20.51Z" transform="translate(-4718.51 -551.1)"/><rect id="_Rectangle_5" data-name="&lt;Rectangle&gt;" class="cls-13" x="153.68" y="15.39" width="20.12" height="47.43"/><path id="_Path_6" data-name="&lt;Path&gt;" class="cls-15" d="M4889.44,585.18a1.44,1.44,0,0,0-1.44-1.44h0a1.44,1.44,0,0,0-1.44,1.44v30.18a1.44,1.44,0,0,0,1.44,1.44h0a1.44,1.44,0,0,0,1.44-1.44Z" transform="translate(-4718.51 -551.1)"/><rect id="_Rectangle_6" data-name="&lt;Rectangle&gt;" class="cls-16" x="149.48" y="61.63" width="28.52" height="8.15" rx="4.07" ry="4.07"/></g><g id="_Group_4" data-name="&lt;Group&gt;"><g id="_Group_5" data-name="&lt;Group&gt;"><rect class="cls-13" x="399.47" y="16.83" width="18.69" height="81.93"/></g><g id="_Group_6" data-name="&lt;Group&gt;"><rect class="cls-12" x="399.47" y="57.79" width="18.69" height="40.96"/></g><g id="_Group_7" data-name="&lt;Group&gt;"><rect class="cls-17" x="399.47" y="57.79" width="18.69" height="10.78"/></g><line id="_Path_7" data-name="&lt;Path&gt;" class="cls-18" x1="400.52" y1="72.41" x2="400.52" y2="1.02"/></g><g id="_Group_8" data-name="&lt;Group&gt;"><path id="_Compound_Path_4" data-name="&lt;Compound Path&gt;" class="cls-12" d="M5450,637.21c7.49-7.3,11.28-17.44,11.28-29.92s-3.9-22.79-11.59-29.82-18.79-11-33.06-11H5388.2v81.93h27.55C5431,648.43,5442.54,644.5,5450,637.21Zm-14.39-12.28v.16c-4.31,3.94-10.2,6.09-18.07,6.09h-10.68V583.75h9.32c8.77,0,15.34,2.21,19.54,6.26s6.25,10,6.25,17.55S5439.95,621,5435.64,624.93Z" transform="translate(-4718.51 -551.1)"/><g id="_Group_9" data-name="&lt;Group&gt;"><path id="_Path_8" data-name="&lt;Path&gt;" class="cls-19" d="M5390.14,607.72a40.64,40.64,0,0,1,40.64,40.64" transform="translate(-4718.51 -551.1)"/></g></g><g id="_Group_10" data-name="&lt;Group&gt;"><path id="_Compound_Path_5" data-name="&lt;Compound Path&gt;" class="cls-12" d="M4800,747.2a15.9,15.9,0,0,1-4,4.43,11.85,11.85,0,0,1-3.42,1.65,10.92,10.92,0,0,1-8.69-.4,8.16,8.16,0,0,1-2.5-2,39.77,39.77,0,0,0,16.5-14.66,41.38,41.38,0,0,0,6.41-22.64c0-11.8-4.12-21.81-12.25-29.75s-18.26-12-30.13-12-22,4-30.13,12-12.25,17.94-12.25,29.75,4.12,21.81,12.25,29.75,18,11.86,29.7,12a26,26,0,0,0,10.18,10.46,27.64,27.64,0,0,0,13.75,3.84,33,33,0,0,0,24.93-10.55l.44-.46-10.28-12.31Zm-15.19-33.54a25.17,25.17,0,0,1-6.62,17.56,21.85,21.85,0,0,1-32.43,0,26.68,26.68,0,0,1,0-35.19,21.74,21.74,0,0,1,32.42,0A25.39,25.39,0,0,1,4784.77,713.66Z" transform="translate(-4718.51 -551.1)"/><line id="_Path_9" data-name="&lt;Path&gt;" class="cls-19" x1="1.02" y1="162" x2="43.42" y2="162"/></g><g id="_Group_11" data-name="&lt;Group&gt;"><polygon id="_Path_10" data-name="&lt;Path&gt;" class="cls-12" points="452.65 170.63 487.15 170.63 487.15 154.82 452.65 154.82 452.65 140.44 491.46 140.44 491.46 123.19 432.53 123.19 432.53 203.69 492.9 203.69 492.9 186.44 452.65 186.44 452.65 170.63"/><g id="_Clip_Group_" data-name="&lt;Clip Group&gt;"><polygon id="_Clipping_Path_2" data-name="&lt;Clipping Path&gt;" class="cls-1" points="454.09 186.44 433.96 203.69 494.33 203.69 494.33 186.44 454.09 186.44"/><g class="cls-20"><g id="_Group_12" data-name="&lt;Group&gt;"><path class="cls-21" d="M5158.26,732.53c2.72.09,4.39,3.07,4.85,5.75s.36,5.61,1.91,7.85c2.28,3.3,7.13,3.57,11,2.49s7.49-3.18,11.5-3.46c10.22-.71,19.19,10.46,29.1,7.88,5.43-1.42,9.11-6.64,14.39-8.56,4-1.45,8.38-.86,12.62-.91a8.09,8.09,0,0,0,3.74-.71,6.44,6.44,0,0,0,2.92-4.22c1.78-7-3.79-14-10.15-17.5-10.61-5.85-23.45-5.63-35.52-4.52a297.85,297.85,0,0,0-34,5.12c-2.45.51-5,1.12-6.88,2.76s-2.79,4.69-1.3,6.7" transform="translate(-4718.51 -551.1)"/></g></g></g></g><g id="_Group_13" data-name="&lt;Group&gt;"><g id="_Group_14" data-name="&lt;Group&gt;"><line class="cls-22" x1="432.53" y1="230.2" x2="635.61" y2="230.2"/><rect class="cls-13" x="431.51" y="223.58" width="2.04" height="13.24"/><rect class="cls-13" x="634.59" y="223.58" width="2.04" height="13.24"/></g><line id="_Path_11" data-name="&lt;Path&gt;" class="cls-23" x1="432.53" y1="207.93" x2="432.53" y2="218.5"/><line id="_Path_12" data-name="&lt;Path&gt;" class="cls-23" x1="636.63" y1="207.93" x2="636.63" y2="218.5"/></g><g id="_Group_15" data-name="&lt;Group&gt;"><polygon id="_Path_13" data-name="&lt;Path&gt;" class="cls-12" points="596.39 170.63 632.32 170.63 632.32 154.82 596.39 154.82 596.39 140.44 635.2 140.44 635.2 123.19 577.7 123.19 577.7 203.69 636.63 203.69 636.63 186.44 596.39 186.44 596.39 170.63"/><polygon id="_Path_14" data-name="&lt;Path&gt;" class="cls-13" points="597.82 140.44 579.14 123.19 636.63 123.19 636.63 140.44 597.82 140.44"/><rect id="_Rectangle_7" data-name="&lt;Rectangle&gt;" class="cls-24" x="613.71" y="133.6" width="28.52" height="8.15" rx="4.07" ry="4.07"/></g><g id="_Group_16" data-name="&lt;Group&gt;"><path id="_Compound_Path_6" data-name="&lt;Compound Path&gt;" class="cls-12" d="M5317,648.43l7.38-17.25h32.32l7.38,17.25h20.41l-34.9-81.93H5331.5l-34.9,81.93Zm14.7-34.5,8.89-20.51,8.79,20.51Z" transform="translate(-4718.51 -551.1)"/><rect id="_Rectangle_8" data-name="&lt;Rectangle&gt;" class="cls-13" x="598.93" y="59.11" width="28.52" height="8.15" rx="4.07" ry="4.07"/></g><g id="_Group_17" data-name="&lt;Group&gt;"><polygon id="_Path_15" data-name="&lt;Path&gt;" class="cls-12" points="692.46 165.81 672.48 123.19 648.13 123.19 648.13 203.69 666.82 203.69 666.82 155.82 686.67 196.5 698.13 196.5 718.56 155.81 718.56 203.69 737.25 203.69 737.25 123.19 712.55 123.19 692.46 165.81"/><rect id="_Rectangle_9" data-name="&lt;Rectangle&gt;" class="cls-13" x="718.56" y="178.49" width="18.69" height="25.2"/><rect id="_Rectangle_10" data-name="&lt;Rectangle&gt;" class="cls-17" x="648.13" y="178.49" width="18.69" height="25.2"/><g id="_Clip_Group_2" data-name="&lt;Clip Group&gt;"><g class="cls-25"><g id="_Group_18" data-name="&lt;Group&gt;"><path class="cls-16" d="M5376.05,714.05a60.76,60.76,0,0,0,3.86,37.45c2.11,4.72,5.83,9.76,11,9.6,3.32-.1,6.24-2.48,7.86-5.38s2.16-6.26,2.56-9.55c.71-5.78,1-11.8-.87-17.3-3.46-9.93-14.77-16.43-25.09-14.4" transform="translate(-4718.51 -551.1)"/></g></g></g><rect id="_Rectangle_11" data-name="&lt;Rectangle&gt;" class="cls-15" x="652.42" y="133.6" width="9.17" height="8.15"/><g id="_Clip_Group_3" data-name="&lt;Clip Group&gt;"><g class="cls-26"><g id="_Group_19" data-name="&lt;Group&gt;"><path class="cls-1" d="M5423.69,719.22c3.12,5.35,6.29,10.77,10.67,15.16s10.17,7.7,16.37,7.8c9.54.16,17.67-7.19,22.56-15.38a8.92,8.92,0,0,0,1.58-4.34c0-3.7-3.9-6.06-7.41-7.24a54.56,54.56,0,0,0-35,.1" transform="translate(-4718.51 -551.1)"/></g></g></g></g><g id="_Group_20" data-name="&lt;Group&gt;"><path id="_Compound_Path_7" data-name="&lt;Compound Path&gt;" class="cls-12" d="M5060.59,747.2a15.9,15.9,0,0,1-4,4.43,11.85,11.85,0,0,1-3.42,1.65,10.92,10.92,0,0,1-8.69-.4,8.16,8.16,0,0,1-2.5-2,39.77,39.77,0,0,0,16.5-14.66,41.38,41.38,0,0,0,6.41-22.64c0-11.8-4.12-21.81-12.25-29.75s-18.26-12-30.13-12-22,4-30.13,12-12.25,17.94-12.25,29.75,4.12,21.81,12.25,29.75,18,11.86,29.7,12a26,26,0,0,0,10.18,10.46,27.64,27.64,0,0,0,13.75,3.84,33,33,0,0,0,24.93-10.55l.44-.46-10.28-12.31Zm-15.19-33.54a25.17,25.17,0,0,1-6.62,17.56,21.85,21.85,0,0,1-32.43,0,26.68,26.68,0,0,1,0-35.19,21.74,21.74,0,0,1,32.42,0A25.39,25.39,0,0,1,5045.4,713.66Z" transform="translate(-4718.51 -551.1)"/><path id="_Path_16" data-name="&lt;Path&gt;" class="cls-12" d="M5122.29,718.26a23.07,23.07,0,0,1-4.63,14.59,13.94,13.94,0,0,1-11.51,5.23,13.56,13.56,0,0,1-11.29-5.24c-2.83-3.52-4.2-8.43-4.2-14.59v-44H5072v44.53c0,11.58,2.9,20.65,9.41,27s14.7,9.51,24.76,9.51,18.53-3.18,25-9.46,9.84-15.37,9.84-27V674.3h-18.69Z" transform="translate(-4718.51 -551.1)"/><g id="_Group_21" data-name="&lt;Group&gt;"><path id="_Path_17" data-name="&lt;Path&gt;" class="cls-19" d="M5097.42,674.3a24.77,24.77,0,0,1-24.77,24.77" transform="translate(-4718.51 -551.1)"/></g><line id="_Path_18" data-name="&lt;Path&gt;" class="cls-27" x1="304.19" y1="122.36" x2="304.19" y2="203.69"/><line id="_Path_19" data-name="&lt;Path&gt;" class="cls-28" x1="304" y1="122.24" x2="378.91" y2="122.24"/></g><g id="_Group_22" data-name="&lt;Group&gt;"><path id="_Compound_Path_8" data-name="&lt;Compound Path&gt;" class="cls-12" d="M5505.76,671.9c-11.87,0-22,4-30.13,12s-12.25,17.94-12.25,29.75,4.12,21.81,12.25,29.75,18.26,12,30.13,12,22-4,30.13-12,12.25-17.94,12.25-29.75-4.12-21.81-12.25-29.75S5517.63,671.9,5505.76,671.9ZM5522,731.22a21.85,21.85,0,0,1-32.43,0,26.68,26.68,0,0,1,0-35.19,21.74,21.74,0,0,1,32.42,0,26.68,26.68,0,0,1,0,35.19Z" transform="translate(-4718.51 -551.1)"/><line id="_Path_20" data-name="&lt;Path&gt;" class="cls-29" x1="787.24" y1="162" x2="787.24" y2="204.2"/><path id="_Compound_Path_9" data-name="&lt;Compound Path&gt;" class="cls-13" d="M5535.88,683.86c-8.12-7.93-18.26-11.95-30.12-11.95s-22,4-30.13,11.95-12.12,17.66-12.24,29.25H5483A25.2,25.2,0,0,1,5489.6,696a21.73,21.73,0,0,1,32.43,0,25.27,25.27,0,0,1,6.61,17.06h19.5C5548,701.52,5543.9,691.68,5535.88,683.86Z" transform="translate(-4718.51 -551.1)"/><line id="_Path_21" data-name="&lt;Path&gt;" class="cls-27" x1="745.87" y1="162" x2="830.68" y2="162"/></g></g></svg>