<svg id="bg" xmlns="http://www.w3.org/2000/svg" xmlns:xlink="http://www.w3.org/1999/xlink" viewBox="0 0 631.27 240.38"><defs><style>.cls-1{fill:#f47056;}.cls-19,.cls-2,.cls-20,.cls-21,.cls-22,.cls-23,.cls-24,.cls-27,.cls-31{fill:none;}.cls-3{font-size:25.08px;font-family:CircularStd-Black, CircularStd Black;letter-spacing:-0.04em;}.cls-3,.cls-32{fill:#0c61a7;}.cls-4,.cls-6{letter-spacing:-0.02em;}.cls-5{letter-spacing:-0.05em;}.cls-17,.cls-6{fill:#0092dd;}.cls-7{letter-spacing:-0.1em;}.cls-8{letter-spacing:-0.03em;}.cls-9{letter-spacing:-0.02em;}.cls-10{letter-spacing:-0.06em;}.cls-11{letter-spacing:-0.02em;}.cls-12{letter-spacing:-0.05em;}.cls-13{fill:#064977;}.cls-14{fill:#08c;}.cls-15{fill:#f9a698;}.cls-16{fill:#fff;}.cls-18{fill:#ffc933;}.cls-19{stroke:#0c61a7;}.cls-19,.cls-20,.cls-21,.cls-22,.cls-23,.cls-24,.cls-27,.cls-31,.cls-32{stroke-linecap:round;stroke-miterlimit:10;}.cls-19,.cls-20,.cls-21,.cls-22,.cls-23,.cls-27,.cls-31{stroke-width:1.92px;}.cls-19,.cls-20,.cls-21,.cls-23,.cls-24,.cls-32{stroke-dasharray:6 6;}.cls-20{stroke:#14afe5;}.cls-21{stroke:#fff;}.cls-22{stroke:#0092dd;}.cls-23,.cls-27{stroke:#222e3b;}.cls-24,.cls-32{stroke:#15afe5;stroke-width:2px;}.cls-25{clip-path:url(#clip-path);}.cls-26{fill:#ffb89f;}.cls-27{stroke-dasharray:4 4;}.cls-28{clip-path:url(#clip-path-2);}.cls-29{fill:#ff834d;}.cls-30{clip-path:url(#clip-path-3);}.cls-31{stroke:#f9a698;}</style><clipPath id="clip-path" transform="translate(-4182.54 -184.78)"><polygon id="_Clipping_Path_" data-name="&lt;Clipping Path&gt;" class="cls-1" points="4501.73 315.97 4487.59 328.09 4529.99 328.09 4529.99 315.97 4501.73 315.97"/></clipPath><clipPath id="clip-path-2" transform="translate(-4182.54 -184.78)"><rect id="_Rectangle_" data-name="&lt;Rectangle&gt;" class="cls-2" x="4638.02" y="310.39" width="13.12" height="17.7"/></clipPath><clipPath id="clip-path-3" transform="translate(-4182.54 -184.78)"><rect id="_Rectangle_2" data-name="&lt;Rectangle&gt;" class="cls-2" x="4687.49" y="310.39" width="13.12" height="17.7"/></clipPath></defs><title>losciudadanos</title><g id="_Group_" data-name="&lt;Group&gt;"><text class="cls-3" transform="translate(420.69 206.65)">C<tspan class="cls-4" x="13.52" y="0">ONSTRUIR JUN</tspan><tspan class="cls-5" x="162.64" y="0">T</tspan><tspan class="cls-4" x="173.93" y="0">OS,</tspan><tspan class="cls-6"><tspan x="-48.58" y="27.46">UN ES</tspan><tspan class="cls-7" x="11.66" y="27.46">P</tspan><tspan class="cls-8" x="22.4" y="27.46">A</tspan><tspan class="cls-9" x="36.87" y="27.46">CIO</tspan><tspan class="cls-10" x="73.18" y="27.46"> </tspan><tspan class="cls-7" x="76.99" y="27.46">P</tspan><tspan x="87.73" y="27.46">A</tspan><tspan class="cls-11" x="102.57" y="27.46">R</tspan><tspan x="115.69" y="27.46">A</tspan><tspan class="cls-10" x="130.54" y="27.46"> </tspan><tspan class="cls-12" x="134.35" y="27.46">T</tspan><tspan x="145.64" y="27.46">ODOS</tspan></tspan></text><g id="_Group_2" data-name="&lt;Group&gt;"><g id="_Group_3" data-name="&lt;Group&gt;"><path id="_Compound_Path_" data-name="&lt;Compound Path&gt;" class="cls-13" d="M4472.3,195.83h-12.7l-22.22,52.06v-6.63h-23.22V195.83H4400v57.55h49.4l5.18-12.11h22.7l5.18,12.11h14.34Zm-.14,33.32h-12.42l6.25-14.41Z" transform="translate(-4182.54 -184.78)"/><path id="_Path_" data-name="&lt;Path&gt;" class="cls-13" d="M4544.16,253.7c8.69,0,16.35-3.65,22.74-10.85l.31-.35-8.7-9-.36.45a18,18,0,0,1-14.6,7.07,15.1,15.1,0,0,1-11-4.56c-3-3-4.56-7.1-4.56-12.12s1.62-9,4.82-12a16.68,16.68,0,0,1,11.66-4.45c5.66,0,10.46,2.4,14.28,7.15l.38.47,8.43-9.55-.3-.33A30.05,30.05,0,0,0,4543.88,195a29.21,29.21,0,0,0-21.12,8.44,28.35,28.35,0,0,0-8.64,21.05c0,8.37,2.85,15.4,8.48,20.89S4535.48,253.7,4544.16,253.7Z" transform="translate(-4182.54 -184.78)"/><g id="_Group_4" data-name="&lt;Group&gt;"><rect class="cls-14" x="390.12" y="12.06" width="13.12" height="57.55"/></g><g id="_Group_5" data-name="&lt;Group&gt;"><rect class="cls-13" x="390.12" y="40.84" width="13.12" height="28.77"/></g><g id="_Group_6" data-name="&lt;Group&gt;"><rect class="cls-15" x="390.12" y="40.84" width="13.12" height="7.57"/></g><path id="_Path_2" data-name="&lt;Path&gt;" class="cls-13" d="M4643.33,195.83h-14.13V227.6c0,4.33-.93,7.78-2.89,10.25a9.45,9.45,0,0,1-7.9,3.68,9.09,9.09,0,0,1-7.69-3.68c-2-2.47-2.71-5.92-2.71-10.25V195.83h-14.13V228c0,8.13,2.39,14.51,7,18.94s10.5,6.68,17.57,6.68,13.25-2.23,17.79-6.64,7.14-10.8,7.14-19Z" transform="translate(-4182.54 -184.78)"/><path id="_Compound_Path_2" data-name="&lt;Compound Path&gt;" class="cls-13" d="M4693.94,245.5c5.26-5.12,7.93-12.25,7.93-21s-2.74-16-8.14-20.95-13.2-7.71-23.22-7.71h-20.11v57.55h19.47C4680.58,253.38,4688.68,250.62,4693.94,245.5Zm-10-8.51c-2.95,2.77-7.24,4.28-12.77,4.28h-6.61V207.95h5.65c6.16,0,10.78,1.55,13.72,4.39s4.43,7.08,4.43,12.38S4686.84,234.23,4683.91,237Z" transform="translate(-4182.54 -184.78)"/><path id="_Compound_Path_3" data-name="&lt;Compound Path&gt;" class="cls-13" d="M4712.45,253.38l5.18-12.11h22.7l5.18,12.11h14.34l-24.52-57.55h-12.7l-24.52,57.55Zm10.32-24.23,6.25-14.41,6.17,14.41Z" transform="translate(-4182.54 -184.78)"/><path id="_Compound_Path_4" data-name="&lt;Compound Path&gt;" class="cls-13" d="M4805.88,245.5c5.26-5.12,7.93-12.25,7.93-21s-2.74-16-8.14-20.95-13.2-7.71-23.22-7.71h-20v57.55h19.35C4792.53,253.38,4800.62,250.62,4805.88,245.5Zm-10.11-8.62V237c-3,2.77-7.16,4.28-12.69,4.28h-7.5V207.95h6.54c6.16,0,10.78,1.55,13.72,4.39s4.39,7,4.39,12.33S4798.8,234.12,4795.77,236.88Z" transform="translate(-4182.54 -184.78)"/></g><g id="_Group_7" data-name="&lt;Group&gt;"><path id="_Compound_Path_5" data-name="&lt;Compound Path&gt;" class="cls-13" d="M4240,322.76a11.17,11.17,0,0,1-2.81,3.11,8.33,8.33,0,0,1-2.4,1.16,7.67,7.67,0,0,1-6.1-.28,5.73,5.73,0,0,1-1.75-1.39,27.94,27.94,0,0,0,11.59-10.3,29.06,29.06,0,0,0,4.5-15.9,28.14,28.14,0,0,0-8.6-20.89,30.87,30.87,0,0,0-42.33,0,29.67,29.67,0,0,0,0,41.79,29.2,29.2,0,0,0,20.86,8.4,18.23,18.23,0,0,0,7.15,7.35,19.41,19.41,0,0,0,9.66,2.7,23.2,23.2,0,0,0,17.51-7.41l.31-.33-7.22-8.65Zm-10.67-23.56a17.68,17.68,0,0,1-4.65,12.34,15.35,15.35,0,0,1-22.78,0,18.74,18.74,0,0,1,0-24.71,15.27,15.27,0,0,1,22.77,0A17.83,17.83,0,0,1,4229.32,299.2Z" transform="translate(-4182.54 -184.78)"/><path id="_Path_3" data-name="&lt;Path&gt;" class="cls-13" d="M4282.65,302.43c0,4.33-.95,7.77-2.91,10.25a9.47,9.47,0,0,1-7.91,3.68,9.06,9.06,0,0,1-7.68-3.68c-2-2.47-2.7-5.92-2.7-10.25V271.55h-14.13v31.27c0,8.13,2.37,14.5,6.94,18.94s10.49,6.68,17.56,6.68,13.26-2.23,17.8-6.64,7.16-10.8,7.16-19V271.55h-14.13Z" transform="translate(-4182.54 -184.78)"/><polygon id="_Path_4" data-name="&lt;Path&gt;" class="cls-13" points="133.42 120.09 157.65 120.09 157.65 108.98 133.42 108.98 133.42 98.89 160.68 98.89 160.68 86.77 119.29 86.77 119.29 143.31 161.69 143.31 161.69 131.19 133.42 131.19 133.42 120.09"/><path id="_Compound_Path_6" data-name="&lt;Compound Path&gt;" class="cls-13" d="M4423.06,322.76a11.17,11.17,0,0,1-2.81,3.11,8.33,8.33,0,0,1-2.4,1.16,7.67,7.67,0,0,1-6.1-.28,5.73,5.73,0,0,1-1.75-1.39,27.94,27.94,0,0,0,11.59-10.3,29.06,29.06,0,0,0,4.5-15.9,28.14,28.14,0,0,0-8.6-20.89,30.87,30.87,0,0,0-42.33,0,29.67,29.67,0,0,0,0,41.79,29.2,29.2,0,0,0,20.86,8.4,18.23,18.23,0,0,0,7.15,7.35,19.41,19.41,0,0,0,9.66,2.7,23.2,23.2,0,0,0,17.51-7.41l.31-.33-7.22-8.65Zm-10.67-23.56a17.68,17.68,0,0,1-4.65,12.34,15.35,15.35,0,0,1-22.78,0,18.74,18.74,0,0,1,0-24.71,15.27,15.27,0,0,1,22.77,0A17.83,17.83,0,0,1,4412.39,299.2Z" transform="translate(-4182.54 -184.78)"/><path id="_Path_5" data-name="&lt;Path&gt;" class="cls-13" d="M4466.39,302.43a16.21,16.21,0,0,1-3.25,10.25,9.79,9.79,0,0,1-8.08,3.68,9.53,9.53,0,0,1-7.93-3.68c-2-2.47-2.95-5.92-2.95-10.25V271.55h-13.12v31.27c0,8.13,2,14.5,6.61,18.94s10.32,6.68,17.39,6.68,13-2.23,17.55-6.64,6.91-10.8,6.91-19V271.55h-13.12Z" transform="translate(-4182.54 -184.78)"/><polygon id="_Path_6" data-name="&lt;Path&gt;" class="cls-13" points="318.18 120.09 342.41 120.09 342.41 108.98 318.18 108.98 318.18 98.89 345.44 98.89 345.44 86.77 304.04 86.77 304.04 143.31 346.44 143.31 346.44 131.19 318.18 131.19 318.18 120.09"/><path id="_Compound_Path_7" data-name="&lt;Compound Path&gt;" class="cls-13" d="M4580.76,290.15c0-6.62-1.93-11.29-5.73-14.31s-10.11-4.29-18.85-4.29H4535v56.54h13.12V309.92h7.66l12.36,18.17h16.55l-14.3-20.3C4577.28,305,4580.76,299,4580.76,290.15Zm-13.69,0c0,2.84-.72,5.16-2.14,6.44s-4.25,2.18-8.35,2.18h-8.4V282.66h8.64c3.86,0,6.58.62,8.08,1.67S4567.07,287.37,4567.07,290.19Z" transform="translate(-4182.54 -184.78)"/><polygon id="_Path_7" data-name="&lt;Path&gt;" class="cls-13" points="419.13 120.09 444.37 120.09 444.37 108.98 419.13 108.98 419.13 98.89 446.39 98.89 446.39 86.77 406.01 86.77 406.01 143.31 447.4 143.31 447.4 131.19 419.13 131.19 419.13 120.09"/><polygon id="_Path_8" data-name="&lt;Path&gt;" class="cls-13" points="486.62 116.71 472.58 86.77 455.48 86.77 455.48 143.31 468.6 143.31 468.6 109.69 482.55 138.26 490.6 138.26 504.95 109.68 504.95 143.31 518.07 143.31 518.07 86.77 500.73 86.77 486.62 116.71"/><path id="_Compound_Path_8" data-name="&lt;Compound Path&gt;" class="cls-13" d="M4735.73,269.87a29.25,29.25,0,0,0-21.16,8.4,29.67,29.67,0,0,0,0,41.79,30.87,30.87,0,0,0,42.33,0,29.67,29.67,0,0,0,0-41.79A29.25,29.25,0,0,0,4735.73,269.87Zm11.43,41.66a15.35,15.35,0,0,1-22.78,0,18.74,18.74,0,0,1,0-24.71,15.27,15.27,0,0,1,22.77,0,18.74,18.74,0,0,1,0,24.71Z" transform="translate(-4182.54 -184.78)"/><path id="_Path_9" data-name="&lt;Path&gt;" class="cls-13" d="M4807.35,299.42c-3-2.65-7.19-4.66-12.53-6s-8.56-2.4-10-3.32a3.91,3.91,0,0,1-2-3.45,4.29,4.29,0,0,1,1.61-3.52,7.05,7.05,0,0,1,4.58-1.36c5,0,10,1.82,14.68,5.4l.42.32,6.86-9.9-.35-.3a30.54,30.54,0,0,0-9.89-5.51,34.88,34.88,0,0,0-11.33-1.94c-5.77,0-10.67,1.48-14.54,4.41s-5.9,7.21-5.9,12.64,1.58,9.47,4.69,12,7.91,4.57,14.43,6.12c4,1,6.72,2,8,2.91a4.14,4.14,0,0,1,1.86,3.58,4.22,4.22,0,0,1-1.75,3.58,8.31,8.31,0,0,1-5.08,1.37c-5,0-10.45-2.61-16.33-7.77l-.39-.35-8,9.86.35.32c7.13,6.6,15.27,9.94,24.18,9.94,6.2,0,11.29-1.61,15.11-4.78a15.6,15.6,0,0,0,5.8-12.55C4811.9,306.08,4810.37,302.11,4807.35,299.42Z" transform="translate(-4182.54 -184.78)"/></g><rect id="_Rectangle_3" data-name="&lt;Rectangle&gt;" class="cls-14" x="217.48" y="11.05" width="14.13" height="33.32"/><path id="_Path_10" data-name="&lt;Path&gt;" class="cls-16" d="M4412.13,209a1,1,0,0,0-1-1h0a1,1,0,0,0-1,1v21.2a1,1,0,0,0,1,1h0a1,1,0,0,0,1-1Z" transform="translate(-4182.54 -184.78)"/><rect id="_Rectangle_4" data-name="&lt;Rectangle&gt;" class="cls-14" x="64.77" y="86.77" width="14.13" height="23.28"/><rect id="_Rectangle_5" data-name="&lt;Rectangle&gt;" class="cls-17" x="64.77" y="86.77" width="14.13" height="7.07"/><rect id="_Rectangle_6" data-name="&lt;Rectangle&gt;" class="cls-17" x="504.95" y="125.61" width="13.12" height="17.7"/><rect id="_Rectangle_7" data-name="&lt;Rectangle&gt;" class="cls-15" x="455.48" y="125.61" width="13.12" height="17.7"/><rect id="_Rectangle_8" data-name="&lt;Rectangle&gt;" class="cls-18" x="214.53" y="43.53" width="20.03" height="5.72" rx="2.86" ry="2.86"/></g><line id="_Path_11" data-name="&lt;Path&gt;" class="cls-19" x1="390.86" y1="51.1" x2="390.86" y2="0.96"/><g id="_Group_8" data-name="&lt;Group&gt;"><path id="_Path_12" data-name="&lt;Path&gt;" class="cls-20" d="M4763.82,224.79a28.55,28.55,0,0,1,28.55,28.55" transform="translate(-4182.54 -184.78)"/></g><g id="_Group_9" data-name="&lt;Group&gt;"><path id="_Path_13" data-name="&lt;Path&gt;" class="cls-21" d="M4448.92,271.55a17.4,17.4,0,0,1-17.4,17.4" transform="translate(-4182.54 -184.78)"/></g><polygon id="_Path_14" data-name="&lt;Path&gt;" class="cls-17" points="420.14 98.89 407.02 86.77 447.4 86.77 447.4 98.89 420.14 98.89"/><line id="_Path_15" data-name="&lt;Path&gt;" class="cls-21" x1="0.96" y1="114.03" x2="30.74" y2="114.03"/><g id="_Group_10" data-name="&lt;Group&gt;"><line class="cls-22" x1="304" y1="161.93" x2="447.44" y2="161.93"/><rect class="cls-17" x="303.04" y="155.7" width="1.92" height="12.47"/><rect class="cls-17" x="446.48" y="155.7" width="1.92" height="12.47"/></g><line id="_Path_16" data-name="&lt;Path&gt;" class="cls-23" x1="553.19" y1="114.03" x2="553.19" y2="142.69"/><line id="_Path_17" data-name="&lt;Path&gt;" class="cls-24" x1="213.9" y1="86.45" x2="213.9" y2="143.31"/><g id="_Clip_Group_" data-name="&lt;Clip Group&gt;"><polygon id="_Clipping_Path_2" data-name="&lt;Clipping Path&gt;" class="cls-1" points="319.19 131.19 305.05 143.31 347.45 143.31 347.45 131.19 319.19 131.19"/><g class="cls-25"><g id="_Group_11" data-name="&lt;Group&gt;"><path class="cls-26" d="M4491.65,312.45c1.91.06,3.08,2.16,3.41,4s.25,3.94,1.34,5.51c1.6,2.32,5,2.51,7.72,1.75s5.26-2.23,8.08-2.43c7.18-.5,13.48,7.35,20.44,5.53,3.82-1,6.4-4.66,10.11-6,2.8-1,5.88-.6,8.86-.64a5.68,5.68,0,0,0,2.63-.5,4.52,4.52,0,0,0,2-3c1.25-4.95-2.66-9.83-7.13-12.29-7.46-4.11-16.47-4-24.95-3.17a209.21,209.21,0,0,0-23.87,3.6,10.35,10.35,0,0,0-4.83,1.94c-1.32,1.16-2,3.29-.91,4.71" transform="translate(-4182.54 -184.78)"/></g></g></g><line id="_Path_18" data-name="&lt;Path&gt;" class="cls-27" x1="304.04" y1="146.29" x2="304.04" y2="153.71"/><line id="_Path_19" data-name="&lt;Path&gt;" class="cls-27" x1="447.4" y1="146.29" x2="447.4" y2="153.71"/><g id="_Clip_Group_2" data-name="&lt;Clip Group&gt;"><g class="cls-28"><g id="_Group_12" data-name="&lt;Group&gt;"><path class="cls-18" d="M4644.63,299.47a42.68,42.68,0,0,0,2.71,26.3c1.48,3.32,4.09,6.85,7.72,6.74a6.93,6.93,0,0,0,5.52-3.78,18.06,18.06,0,0,0,1.8-6.71c.5-4.06.73-8.29-.61-12.15a16,16,0,0,0-17.62-10.11" transform="translate(-4182.54 -184.78)"/></g></g></g><g id="_Group_13" data-name="&lt;Group&gt;"><rect id="_Rectangle_9" data-name="&lt;Rectangle&gt;" class="cls-29" x="431.3" y="94.08" width="20.03" height="5.72" rx="2.86" ry="2.86"/><rect id="_Rectangle_10" data-name="&lt;Rectangle&gt;" class="cls-16" x="458.49" y="94.08" width="6.44" height="5.72"/></g><rect id="_Rectangle_11" data-name="&lt;Rectangle&gt;" class="cls-17" x="530.22" y="41.76" width="20.03" height="5.72" rx="2.86" ry="2.86"/><g id="_Clip_Group_3" data-name="&lt;Clip Group&gt;"><g class="cls-30"><g id="_Group_14" data-name="&lt;Group&gt;"><path class="cls-1" d="M4678.09,303.1c2.19,3.76,4.42,7.57,7.5,10.65s7.15,5.41,11.5,5.48c6.7.11,12.41-5,15.85-10.8a6.27,6.27,0,0,0,1.11-3c0-2.6-2.74-4.25-5.2-5.09a38.32,38.32,0,0,0-24.56.07" transform="translate(-4182.54 -184.78)"/></g></g></g><path id="_Compound_Path_9" data-name="&lt;Compound Path&gt;" class="cls-17" d="M4756.89,278.26a30.87,30.87,0,0,0-42.32,0,28.1,28.1,0,0,0-8.6,20.54h13.77a17.7,17.7,0,0,1,4.64-12,15.26,15.26,0,0,1,22.77,0,17.75,17.75,0,0,1,4.64,12h13.7A28.1,28.1,0,0,0,4756.89,278.26Z" transform="translate(-4182.54 -184.78)"/><line id="_Path_20" data-name="&lt;Path&gt;" class="cls-31" x1="213.77" y1="86.11" x2="266.38" y2="86.11"/><line id="_Path_21" data-name="&lt;Path&gt;" class="cls-32" x1="524.13" y1="114.03" x2="583.7" y2="114.03"/></g></svg>