<svg xmlns="http://www.w3.org/2000/svg" xmlns:xlink="http://www.w3.org/1999/xlink" viewBox="0 0 372.41 160.26"><defs><style>.cls-1{fill:#f47056;}.cls-12,.cls-13,.cls-17,.cls-18,.cls-2,.cls-3,.cls-5{fill:none;}.cls-3{stroke:#0092dd;}.cls-12,.cls-13,.cls-17,.cls-18,.cls-3,.cls-5{stroke-linecap:round;stroke-miterlimit:10;stroke-width:2px;}.cls-4{fill:#0092dd;}.cls-5{stroke:#222e3b;stroke-dasharray:3.5 3.5;}.cls-6{fill:#1b3955;}.cls-7{fill:#15afe5;}.cls-8{fill:#fff;}.cls-9{fill:#a8a1e2;}.cls-10{fill:#064977;}.cls-11{fill:#f9a698;}.cls-12{stroke:#0c61a7;}.cls-12,.cls-13,.cls-18{stroke-dasharray:6 6;}.cls-13{stroke:#fff;}.cls-14{clip-path:url(#clip-path);}.cls-15{clip-path:url(#clip-path-2);}.cls-16{clip-path:url(#clip-path-3);}.cls-17{stroke:#8a92db;}.cls-18{stroke:#15afe5;}</style><clipPath id="clip-path" transform="translate(-1047.46 -309.51)"><polygon id="_Clipping_Path_" data-name="&lt;Clipping Path&gt;" class="cls-1" points="1140.75 355.38 1128.48 365.91 1165.31 365.91 1165.31 355.38 1140.75 355.38"/></clipPath><clipPath id="clip-path-2" transform="translate(-1047.46 -309.51)"><rect id="_Rectangle_" data-name="&lt;Rectangle&gt;" class="cls-2" x="1173.18" y="385.7" width="12.87" height="17.36"/></clipPath><clipPath id="clip-path-3" transform="translate(-1047.46 -309.51)"><rect id="_Rectangle_2" data-name="&lt;Rectangle&gt;" class="cls-2" x="1339.95" y="418.76" width="12.61" height="18.22"/></clipPath></defs><title>metodologia</title><g id="Layer_1" data-name="Layer 1"><g id="_Group_" data-name="&lt;Group&gt;"><g id="_Group_2" data-name="&lt;Group&gt;"><line class="cls-3" x1="1.91" y1="153.76" x2="284.1" y2="153.76"/><rect class="cls-4" x="0.91" y="147.26" width="2" height="13"/><rect class="cls-4" x="283.1" y="147.26" width="2" height="13"/></g><line id="_Path_" data-name="&lt;Path&gt;" class="cls-5" x1="1.52" y1="131.9" x2="1.52" y2="142.28"/></g><path class="cls-6" d="M1062.75,309.91l16.32,34.24,16.24-34.24h14.08v56H1098V328.15l-14.88,32.08h-8.24L1060,328.15v37.76h-11.44v-56Z" transform="translate(-1047.46 -309.51)"/><path class="cls-6" d="M1164.43,309.91v10.48h-30v12.16h27V343h-27v12.4h30.88v10.48h-43.52v-56Z" transform="translate(-1047.46 -309.51)"/><path class="cls-6" d="M1216.51,309.91v10.72h-17.12v45.28h-12.64V320.63h-17V309.91Z" transform="translate(-1047.46 -309.51)"/><path class="cls-6" d="M1276.43,337.91c0,16.16-13,28.56-30.08,28.56s-30.08-12.32-30.08-28.56,13-28.4,30.08-28.4S1276.43,321.67,1276.43,337.91Zm-47.2,0a17.41,17.41,0,0,0,17.28,17.52c9.36,0,17-7.68,17-17.52a17,17,0,0,0-17-17.36A17.23,17.23,0,0,0,1229.23,337.91Z" transform="translate(-1047.46 -309.51)"/><path class="cls-6" d="M1303.79,337.35v8.16h-20.64v-8.16Z" transform="translate(-1047.46 -309.51)"/><path class="cls-6" d="M1101.79,407.91c0,16.48-12.24,28-29.92,28h-23.28v-56h23.76C1089.71,379.91,1101.79,391.35,1101.79,407.91Zm-12.88.08c0-10.32-7.2-17.44-16.8-17.44h-10.88v34.72h11.44C1082,425.27,1088.91,418.23,1088.91,408Z" transform="translate(-1047.46 -309.51)"/><path class="cls-6" d="M1164.83,407.91c0,16.16-13,28.56-30.08,28.56s-30.08-12.32-30.08-28.56,13-28.4,30.08-28.4S1164.83,391.67,1164.83,407.91Zm-47.2,0a17.41,17.41,0,0,0,17.28,17.52c9.36,0,17-7.68,17-17.52a17,17,0,0,0-17-17.36A17.23,17.23,0,0,0,1117.63,407.91Z" transform="translate(-1047.46 -309.51)"/><path class="cls-6" d="M1185.79,379.91v45h24v11h-36.64v-56Z" transform="translate(-1047.46 -309.51)"/><path class="cls-6" d="M1273.47,407.91c0,16.16-13,28.56-30.08,28.56s-30.08-12.32-30.08-28.56,13-28.4,30.08-28.4S1273.47,391.67,1273.47,407.91Zm-47.2,0a17.41,17.41,0,0,0,17.28,17.52c9.36,0,17-7.68,17-17.52a17,17,0,0,0-17-17.36A17.23,17.23,0,0,0,1226.27,407.91Z" transform="translate(-1047.46 -309.51)"/><path class="cls-6" d="M1317.95,407.67h11v21.52a41.45,41.45,0,0,1-22.72,7.28c-17,0-29.84-12.32-29.84-28.56s13.12-28.4,30.56-28.4a35.29,35.29,0,0,1,22.48,8.16l-7.12,9a23.44,23.44,0,0,0-15.36-6.24,17.48,17.48,0,1,0,.08,35,25.49,25.49,0,0,0,11-3Z" transform="translate(-1047.46 -309.51)"/><path class="cls-6" d="M1359.79,366l-10.16,8.8h-9.76l8.48-13Zm-7.2,13.92v56h-12.64v-56Z" transform="translate(-1047.46 -309.51)"/><path class="cls-6" d="M1401.95,425H1376l-4.4,10.88h-13l24.32-56h13l23.92,56h-13.52Zm-4.08-10.16-8.8-21.76-8.88,21.76Z" transform="translate(-1047.46 -309.51)"/><rect id="_Rectangle_3" data-name="&lt;Rectangle&gt;" class="cls-4" x="1.22" y="70.4" width="12.49" height="21.67"/><rect id="_Rectangle_4" data-name="&lt;Rectangle&gt;" class="cls-7" x="125.69" y="69.87" width="13.15" height="6.58"/><rect id="_Rectangle_5" data-name="&lt;Rectangle&gt;" class="cls-4" x="138.43" y="0.36" width="13.15" height="31"/><path id="_Path_2" data-name="&lt;Path&gt;" class="cls-8" d="M1197.16,322.07a.94.94,0,0,0-.94-.94h0a.94.94,0,0,0-.94.94V341.8a.94.94,0,0,0,.94.94h0a.94.94,0,0,0,.94-.94Z" transform="translate(-1047.46 -309.51)"/><rect id="_Rectangle_6" data-name="&lt;Rectangle&gt;" class="cls-9" x="135.68" y="30.57" width="18.64" height="5.33" rx="2.66" ry="2.66"/><g id="_Group_3" data-name="&lt;Group&gt;"><rect class="cls-4" y="0.36" width="13.26" height="56.05"/></g><g id="_Group_4" data-name="&lt;Group&gt;"><rect class="cls-10" y="28.38" width="13.26" height="28.02"/></g><g id="_Group_5" data-name="&lt;Group&gt;"><rect class="cls-11" y="28.38" width="13.26" height="7.37"/></g><line id="_Path_3" data-name="&lt;Path&gt;" class="cls-12" x1="55.51" y1="48.55" x2="55.51" y2="12.47"/><g id="_Group_6" data-name="&lt;Group&gt;"><path id="_Path_4" data-name="&lt;Path&gt;" class="cls-13" d="M1245.05,316.18a26.56,26.56,0,0,1,26.56,26.56" transform="translate(-1047.46 -309.51)"/></g><line id="_Path_5" data-name="&lt;Path&gt;" class="cls-13" x1="58.83" y1="97.24" x2="86.55" y2="97.24"/><g id="_Clip_Group_" data-name="&lt;Clip Group&gt;"><polygon id="_Clipping_Path_2" data-name="&lt;Clipping Path&gt;" class="cls-1" points="93.3 45.88 81.02 56.4 117.85 56.4 117.85 45.88 93.3 45.88"/><g class="cls-14"><g id="_Group_7" data-name="&lt;Group&gt;"><path class="cls-9" d="M1129.1,351.52c1.78.06,2.87,2,3.17,3.76s.24,3.67,1.25,5.13c1.49,2.16,4.66,2.34,7.18,1.63s4.9-2.08,7.51-2.26c6.68-.46,12.54,6.84,19,5.15,3.55-.93,6-4.34,9.4-5.6,2.6-.95,5.48-.56,8.25-.59a5.29,5.29,0,0,0,2.44-.46,4.21,4.21,0,0,0,1.91-2.76c1.16-4.6-2.48-9.15-6.63-11.44-6.94-3.82-15.32-3.68-23.21-3a194.67,194.67,0,0,0-22.21,3.35,9.63,9.63,0,0,0-4.5,1.81c-1.23,1.08-1.82,3.07-.85,4.38" transform="translate(-1047.46 -309.51)"/></g></g></g><rect id="_Rectangle_7" data-name="&lt;Rectangle&gt;" class="cls-9" x="1314.11" y="406.68" width="18.64" height="5.33" rx="2.66" ry="2.66" transform="translate(-1051.61 -295.82) rotate(-0.59)"/><rect id="_Rectangle_8" data-name="&lt;Rectangle&gt;" class="cls-4" x="292.49" y="109.33" width="12.61" height="17.01"/><rect id="_Rectangle_9" data-name="&lt;Rectangle&gt;" class="cls-11" x="125.73" y="76.19" width="12.87" height="17.36"/><g id="_Clip_Group_2" data-name="&lt;Clip Group&gt;"><g class="cls-15"><g id="_Group_8" data-name="&lt;Group&gt;"><path class="cls-9" d="M1179.66,375a41.85,41.85,0,0,0,2.66,25.79c1.45,3.25,4,6.72,7.57,6.61a6.79,6.79,0,0,0,5.41-3.7,17.71,17.71,0,0,0,1.77-6.58c.49-4,.72-8.13-.6-11.92a15.71,15.71,0,0,0-17.28-9.92" transform="translate(-1047.46 -309.51)"/></g></g></g><g id="_Clip_Group_3" data-name="&lt;Clip Group&gt;"><g class="cls-16"><g id="_Group_9" data-name="&lt;Group&gt;"><path class="cls-1" d="M1330.92,411.26c2.11,3.87,4.25,7.79,7.2,11s6.86,5.57,11,5.64c6.44.11,11.92-5.2,15.22-11.12a6.75,6.75,0,0,0,1.06-3.14c0-2.68-2.63-4.38-5-5.24a34.48,34.48,0,0,0-23.59.07" transform="translate(-1047.46 -309.51)"/></g></g></g><g id="_Group_10" data-name="&lt;Group&gt;"><path id="_Path_6" data-name="&lt;Path&gt;" class="cls-13" d="M1274.52,414.34a16.19,16.19,0,0,1-16.19,16.19" transform="translate(-1047.46 -309.51)"/></g><line id="_Path_7" data-name="&lt;Path&gt;" class="cls-17" x1="74.74" y1="27.99" x2="114.18" y2="27.99"/><path id="_Compound_Path_" data-name="&lt;Compound Path&gt;" class="cls-4" d="M1265.59,387.23a32,32,0,0,0-43.93,0,29.16,29.16,0,0,0-8.93,21.32H1227a18.37,18.37,0,0,1,4.82-12.44,15.84,15.84,0,0,1,23.64,0,18.42,18.42,0,0,1,4.82,12.44h14.21A29.17,29.17,0,0,0,1265.59,387.23Z" transform="translate(-1047.46 -309.51)"/><line id="_Path_8" data-name="&lt;Path&gt;" class="cls-18" x1="165.4" y1="98.05" x2="225.22" y2="98.05"/></g></svg>