<svg xmlns="http://www.w3.org/2000/svg" viewBox="0 0 337.19 59.86"><defs><style>.cls-1{fill:#1b3955;}.cls-2{fill:none;stroke:#15afe5;stroke-linecap:round;stroke-miterlimit:10;stroke-width:2px;stroke-dasharray:6 6;}.cls-3{fill:#fec845;}.cls-4{fill:#0092dd;}.cls-5{fill:#f9a698;}</style></defs><title>prensa</title><g id="Layer_1" data-name="Layer 1"><path class="cls-1" d="M2597.26,265.26c0,13-8.16,20.56-22.4,20.56h-11.12v16H2551.1v-56h23.76C2589.1,245.82,2597.26,252.86,2597.26,265.26Zm-12,.4c0-6.24-4-9.36-11-9.36h-10.48v19h10.48C2581.26,275.26,2585.26,272.06,2585.26,265.66Z" transform="translate(-2548.07 -245.26)"/><path class="cls-1" d="M2639.74,301.82l-8.88-16H2618v16h-12.64v-56h24.32c14.64,0,23,7,23,19.44,0,8.64-3.68,14.88-10.48,18.08l11.92,18.48ZM2618,275.26h11.68c7,0,11-3.2,11-9.6,0-6.24-4-9.36-11-9.36H2618Z" transform="translate(-2548.07 -245.26)"/><path class="cls-1" d="M2705.9,245.82V256.3h-30v12.16h27v10.48h-27v12.4h30.88v10.48h-43.52v-56Z" transform="translate(-2548.07 -245.26)"/><path class="cls-1" d="M2728.22,245.82l27.2,36v-36h12v56H2755.9l-27.12-35.92v35.92H2716.7v-56Z" transform="translate(-2548.07 -245.26)"/><path class="cls-1" d="M2799.18,256.06c-4.24,0-7.12,1.52-7.12,4.56,0,10.32,29.84,4.56,29.76,24.72,0,11-9.52,16.88-21.92,16.88a39.32,39.32,0,0,1-24.72-8.88l5-10.32c5.76,5.12,13.92,8.4,19.84,8.4,5.2,0,8.32-1.92,8.32-5.36,0-10.56-29.84-4.4-29.84-24.24,0-10.16,8.72-16.56,21.68-16.56a40,40,0,0,1,21.28,6.08l-4.88,10.48C2810.7,258.3,2803.66,256.06,2799.18,256.06Z" transform="translate(-2548.07 -245.26)"/><path class="cls-1" d="M2867.34,290.94h-25.92l-4.4,10.88h-13l24.32-56h13l23.92,56h-13.52Zm-4.08-10.16-8.8-21.76-8.88,21.76Z" transform="translate(-2548.07 -245.26)"/><line class="cls-2" x1="306.3" y1="14.71" x2="306.3" y2="58.86"/><line class="cls-2" x1="159.41" y1="28.54" x2="115.26" y2="28.54"/><rect class="cls-3" y="54.12" width="18.56" height="4.88" rx="1.73" ry="1.73"/><g id="_Group_" data-name="&lt;Group&gt;"><rect class="cls-4" x="207.06" y="0.52" width="12.29" height="56.05"/></g><g id="_Group_2" data-name="&lt;Group&gt;"><rect class="cls-5" x="207.06" y="21.16" width="12.29" height="7.37"/></g></g></svg>