<svg xmlns="http://www.w3.org/2000/svg" xmlns:xlink="http://www.w3.org/1999/xlink" viewBox="0 0 1009.62 384.86"><defs><style>.cls-1,.cls-4,.cls-7,.cls-8{fill:none;}.cls-2,.cls-22,.cls-3{fill:#0092dd;}.cls-2,.cls-4{clip-rule:evenodd;}.cls-5{fill:#f47056;}.cls-6{fill:#1b3955;}.cls-7{stroke:#15afe5;}.cls-7,.cls-8{stroke-linecap:round;stroke-miterlimit:10;stroke-width:2px;stroke-dasharray:6 6;}.cls-8{stroke:#fff;}.cls-9{clip-path:url(#clip-path);}.cls-10{clip-path:url(#clip-path-2);}.cls-11{fill:#fec845;}.cls-12{clip-path:url(#clip-path-3);}.cls-13{clip-path:url(#clip-path-4);}.cls-14{clip-path:url(#clip-path-5);}.cls-15{clip-path:url(#clip-path-6);}.cls-16{isolation:isolate;}.cls-17{clip-path:url(#clip-path-7);}.cls-18{clip-path:url(#clip-path-8);}.cls-19{fill:#a8a1e2;}.cls-20{clip-path:url(#clip-path-10);}.cls-21{clip-path:url(#clip-path-11);}.cls-22{fill-rule:evenodd;}.cls-23{clip-path:url(#clip-path-12);}.cls-24{clip-path:url(#clip-path-13);}.cls-25{fill:#fec0ac;}.cls-26{clip-path:url(#clip-path-14);}.cls-27{fill:#fff;}.cls-28{clip-path:url(#clip-path-16);}.cls-29{clip-path:url(#clip-path-17);}.cls-30{clip-path:url(#clip-path-18);}.cls-31{clip-path:url(#clip-path-19);}.cls-32{clip-path:url(#clip-path-20);}.cls-33{clip-path:url(#clip-path-21);}.cls-34{clip-path:url(#clip-path-22);}.cls-35{fill:#064977;}.cls-36{fill:#f9a698;}</style><clipPath id="clip-path" transform="translate(-2538.54 -286.19)"><rect class="cls-1" x="2656.03" y="406.24" width="13.15" height="31"/></clipPath><clipPath id="clip-path-2" transform="translate(-2538.54 -286.19)"><rect class="cls-1" x="2591.28" y="404.24" width="571" height="166"/></clipPath><clipPath id="clip-path-3" transform="translate(-2538.54 -286.19)"><polygon class="cls-4" points="2987.49 451.98 2975.92 462.49 3009.42 462.49 3009.42 451.98 2987.49 451.98"/></clipPath><clipPath id="clip-path-4" transform="translate(-2538.54 -286.19)"><rect class="cls-1" x="2671.29" y="417.03" width="571" height="166"/></clipPath><clipPath id="clip-path-5" transform="translate(-2538.54 -286.19)"><polygon class="cls-4" points="2979.68 459.08 2987.49 451.98 3009.42 451.98 3009.42 460.77 2979.68 460.77 2979.68 459.08"/></clipPath><clipPath id="clip-path-6" transform="translate(-2538.54 -286.19)"><rect class="cls-1" x="2693.83" y="419.36" width="532.95" height="154.94"/></clipPath><clipPath id="clip-path-7" transform="translate(-2538.54 -286.19)"><rect class="cls-1" x="2979.44" y="451.09" width="30.8" height="10.27"/></clipPath><clipPath id="clip-path-8" transform="translate(-2538.54 -286.19)"><path class="cls-4" d="M2979.68,449.21c1.48,0,2.39,1.7,2.64,3.18s.2,3.1,1,4.34c1.24,1.83,3.88,2,6,1.38s4.08-1.76,6.26-1.91c5.57-.39,10.45,5.79,15.85,4.36,3-.78,5-3.67,7.84-4.74,2.17-.8,4.56-.47,6.87-.5a4.36,4.36,0,0,0,2-.39,3.56,3.56,0,0,0,1.59-2.34c1-3.9-2.06-7.74-5.53-9.68-5.78-3.24-12.77-3.11-19.35-2.5a159.83,159.83,0,0,0-18.51,2.83,8,8,0,0,0-3.75,1.53,2.93,2.93,0,0,0-.71,3.71"/></clipPath><clipPath id="clip-path-10" transform="translate(-2538.54 -286.19)"><polygon class="cls-4" points="2677.94 521.99 2666.36 532.5 2699.86 532.5 2699.86 521.99 2677.94 521.99"/></clipPath><clipPath id="clip-path-11" transform="translate(-2538.54 -286.19)"><rect class="cls-1" x="2361.74" y="487.03" width="571" height="166"/></clipPath><clipPath id="clip-path-12" transform="translate(-2538.54 -286.19)"><polygon class="cls-2" points="3293.36 417.23 3281.78 406.73 3315.28 406.73 3315.28 417.23 3293.36 417.23"/></clipPath><clipPath id="clip-path-13" transform="translate(-2538.54 -286.19)"><rect class="cls-3" x="2977.16" y="286.19" width="571" height="166"/></clipPath><clipPath id="clip-path-14" transform="translate(-2538.54 -286.19)"><path class="cls-4" d="M2667.3,418.45a.94.94,0,0,0-1.88,0v19.73a.94.94,0,0,0,1.88,0Z"/></clipPath><clipPath id="clip-path-16" transform="translate(-2538.54 -286.19)"><rect class="cls-1" x="3093.91" y="429.57" width="12.65" height="29.81"/></clipPath><clipPath id="clip-path-17" transform="translate(-2538.54 -286.19)"><rect class="cls-1" x="3031.65" y="427.65" width="549.1" height="159.63"/></clipPath><clipPath id="clip-path-18" transform="translate(-2538.54 -286.19)"><rect class="cls-1" x="2925" y="511.44" width="11.44" height="21.14"/></clipPath><clipPath id="clip-path-19" transform="translate(-2538.54 -286.19)"><rect class="cls-1" x="2868.7" y="510.07" width="496.53" height="113.22"/></clipPath><clipPath id="clip-path-20" transform="translate(-2538.54 -286.19)"><rect class="cls-5" x="2936.83" y="545.63" width="13" height="23.71"/></clipPath><clipPath id="clip-path-21" transform="translate(-2538.54 -286.19)"><rect class="cls-5" x="2872.84" y="544.1" width="564.36" height="126.95"/></clipPath><clipPath id="clip-path-22" transform="translate(-2538.54 -286.19)"><path class="cls-4" d="M3104.75,441.32a.9.9,0,0,0-1.81,0v19a.9.9,0,0,0,1.81,0Z"/></clipPath></defs><title>rai</title><g id="Layer_1" data-name="Layer 1"><path class="cls-6" d="M2579.34,462.49l-8.88-16h-12.88v16h-12.64v-56h24.32c14.64,0,23,7,23,19.44,0,8.64-3.68,14.88-10.48,18.08l11.92,18.48Zm-21.76-26.56h11.68c7,0,11-3.2,11-9.6,0-6.24-4-9.36-11-9.36h-11.68Z" transform="translate(-2538.54 -286.19)"/><path class="cls-6" d="M2645.5,406.49V417h-30v12.16h27v10.48h-27V452h30.88v10.48h-43.52v-56Z" transform="translate(-2538.54 -286.19)"/><path class="cls-6" d="M2668.94,406.49v45h24v11H2656.3v-56Z" transform="translate(-2538.54 -286.19)"/><path class="cls-6" d="M2743.1,406.49V417h-30v12.16h27v10.48h-27V452H2744v10.48h-43.52v-56Z" transform="translate(-2538.54 -286.19)"/><path class="cls-6" d="M2761.34,406.49l15.28,42.24L2792,406.49h13l-22.24,56h-13l-22-56Z" transform="translate(-2538.54 -286.19)"/><path class="cls-6" d="M2843.9,451.61H2818l-4.4,10.88h-13l24.32-56h13l23.92,56H2848.3Zm-4.08-10.16-8.8-21.76-8.88,21.76Z" transform="translate(-2538.54 -286.19)"/><path class="cls-6" d="M2881.82,406.49l16.32,34.24,16.24-34.24h14.08v56H2917.1V424.73l-14.88,32.08H2894l-14.88-32.08v37.76h-11.44v-56Z" transform="translate(-2538.54 -286.19)"/><path class="cls-6" d="M2953.5,406.49v56h-12.64v-56Z" transform="translate(-2538.54 -286.19)"/><path class="cls-6" d="M3008.54,406.49V417h-30v12.16h27v10.48h-27V452h30.88v10.48H2965.9v-56Z" transform="translate(-2538.54 -286.19)"/><path class="cls-6" d="M3030.86,406.49l27.2,36v-36h12v56h-11.52l-27.12-35.92v35.92h-12.08v-56Z" transform="translate(-2538.54 -286.19)"/><path class="cls-6" d="M3123.66,406.49v10.72h-17.12v45.28H3093.9V417.21h-17V406.49Z" transform="translate(-2538.54 -286.19)"/><path class="cls-6" d="M3183.58,434.49c0,16.16-13,28.56-30.08,28.56s-30.08-12.32-30.08-28.56,13-28.4,30.08-28.4S3183.58,418.25,3183.58,434.49Zm-47.2,0A17.41,17.41,0,0,0,3153.66,452c9.36,0,17-7.68,17-17.52a17,17,0,0,0-17-17.36A17.23,17.23,0,0,0,3136.38,434.49Z" transform="translate(-2538.54 -286.19)"/><path class="cls-6" d="M3269.1,434.49c0,16.48-12.24,28-29.92,28H3215.9v-56h23.76C3257,406.49,3269.1,417.93,3269.1,434.49Zm-12.88.08c0-10.32-7.2-17.44-16.8-17.44h-10.88v34.72H3240C3249.34,451.85,3256.22,444.81,3256.22,434.57Z" transform="translate(-2538.54 -286.19)"/><path class="cls-6" d="M3320.06,406.49V417h-30v12.16h27v10.48h-27V452h30.88v10.48h-43.52v-56Z" transform="translate(-2538.54 -286.19)"/><path class="cls-6" d="M2581.9,521.61H2556l-4.4,10.88h-13l24.32-56h13l23.92,56H2586.3Zm-4.08-10.16-8.8-21.76-8.88,21.76Z" transform="translate(-2538.54 -286.19)"/><path class="cls-6" d="M2624.78,486.73c-4.24,0-7.12,1.52-7.12,4.56,0,10.32,29.84,4.56,29.76,24.72,0,11-9.52,16.88-21.92,16.88a39.32,39.32,0,0,1-24.72-8.88l5-10.32c5.76,5.12,13.92,8.4,19.84,8.4,5.2,0,8.32-1.92,8.32-5.36,0-10.56-29.84-4.4-29.84-24.24,0-10.16,8.72-16.56,21.68-16.56A40,40,0,0,1,2647.1,482l-4.88,10.48C2636.3,489,2629.26,486.73,2624.78,486.73Z" transform="translate(-2538.54 -286.19)"/><path class="cls-6" d="M2698.94,476.49V487h-30v12.16h27v10.48h-27V522h30.88v10.48H2656.3v-56Z" transform="translate(-2538.54 -286.19)"/><path class="cls-6" d="M2721.26,476.49l27.2,36v-36h12v56h-11.52l-27.12-35.92v35.92h-12.08v-56Z" transform="translate(-2538.54 -286.19)"/><path class="cls-6" d="M2814.06,476.49v10.72h-17.12v45.28H2784.3V487.21h-17V476.49Z" transform="translate(-2538.54 -286.19)"/><path class="cls-6" d="M2852,521.61h-25.92l-4.4,10.88h-13l24.32-56h13l23.92,56h-13.52Zm-4.08-10.16-8.8-21.76-8.88,21.76Z" transform="translate(-2538.54 -286.19)"/><path class="cls-6" d="M2889.9,476.49l16.32,34.24,16.24-34.24h14.08v56h-11.36V494.73l-14.88,32.08h-8.24l-14.88-32.08v37.76h-11.44v-56Z" transform="translate(-2538.54 -286.19)"/><path class="cls-6" d="M2961.58,476.49v56h-12.64v-56Z" transform="translate(-2538.54 -286.19)"/><path class="cls-6" d="M3016.62,476.49V487h-30v12.16h27v10.48h-27V522h30.88v10.48H2974v-56Z" transform="translate(-2538.54 -286.19)"/><path class="cls-6" d="M3038.94,476.49l27.2,36v-36h12v56h-11.52l-27.12-35.92v35.92h-12.08v-56Z" transform="translate(-2538.54 -286.19)"/><path class="cls-6" d="M3131.74,476.49v10.72h-17.12v45.28H3102V487.21h-17V476.49Z" transform="translate(-2538.54 -286.19)"/><path class="cls-6" d="M3191.66,504.49c0,16.16-13,28.56-30.08,28.56s-30.08-12.32-30.08-28.56,13-28.4,30.08-28.4S3191.66,488.25,3191.66,504.49Zm-47.2,0A17.41,17.41,0,0,0,3161.74,522c9.36,0,17-7.68,17-17.52a17,17,0,0,0-17-17.36A17.23,17.23,0,0,0,3144.46,504.49Z" transform="translate(-2538.54 -286.19)"/><path class="cls-6" d="M3219.42,486.73c-4.24,0-7.12,1.52-7.12,4.56,0,10.32,29.84,4.56,29.76,24.72,0,11-9.52,16.88-21.92,16.88a39.32,39.32,0,0,1-24.72-8.88l5-10.32c5.76,5.12,13.92,8.4,19.84,8.4,5.2,0,8.32-1.92,8.32-5.36,0-10.56-29.84-4.4-29.84-24.24,0-10.16,8.72-16.56,21.68-16.56a40,40,0,0,1,21.28,6.08l-4.88,10.48C3230.94,489,3223.9,486.73,3219.42,486.73Z" transform="translate(-2538.54 -286.19)"/><path class="cls-6" d="M2557.58,546.49v56h-12.64v-56Z" transform="translate(-2538.54 -286.19)"/><path class="cls-6" d="M2581.5,546.49l27.2,36v-36h12v56h-11.52l-27.12-35.92v35.92H2570v-56Z" transform="translate(-2538.54 -286.19)"/><path class="cls-6" d="M2673.26,546.49l-.08,10.48h-27.52v13.76h25.28v10.56h-25.28v21.2H2633v-56Z" transform="translate(-2538.54 -286.19)"/><path class="cls-6" d="M2736.78,574.49c0,16.16-13,28.56-30.08,28.56s-30.08-12.32-30.08-28.56,13-28.4,30.08-28.4S2736.78,558.25,2736.78,574.49Zm-47.2,0A17.41,17.41,0,0,0,2706.86,592c9.36,0,17-7.68,17-17.52a17,17,0,0,0-17-17.36A17.23,17.23,0,0,0,2689.58,574.49Z" transform="translate(-2538.54 -286.19)"/><path class="cls-6" d="M2779.5,602.49l-8.88-16h-12.88v16H2745.1v-56h24.32c14.64,0,23,7,23,19.44,0,8.64-3.68,14.88-10.48,18.08l11.92,18.48Zm-21.76-26.56h11.68c7,0,11-3.2,11-9.6,0-6.24-4-9.36-11-9.36h-11.68Z" transform="translate(-2538.54 -286.19)"/><path class="cls-6" d="M2817.18,546.49l16.32,34.24,16.24-34.24h14.08v56h-11.36V564.73l-14.88,32.08h-8.24l-14.88-32.08v37.76H2803v-56Z" transform="translate(-2538.54 -286.19)"/><path class="cls-6" d="M2913.18,591.61h-25.92l-4.4,10.88h-13l24.32-56h13l23.92,56h-13.52Zm-4.08-10.16-8.8-21.76-8.88,21.76Z" transform="translate(-2538.54 -286.19)"/><path class="cls-6" d="M2949.58,546.49v45h24v11h-36.64v-56Z" transform="translate(-2538.54 -286.19)"/><path class="cls-6" d="M3023.74,546.49V557h-30v12.16h27v10.48h-27V592h30.88v10.48H2981.1v-56Z" transform="translate(-2538.54 -286.19)"/><path class="cls-6" d="M3054,556.73c-4.24,0-7.12,1.52-7.12,4.56,0,10.32,29.84,4.56,29.76,24.72,0,11-9.52,16.88-21.92,16.88A39.32,39.32,0,0,1,3030,594l5-10.32c5.76,5.12,13.92,8.4,19.84,8.4,5.2,0,8.32-1.92,8.32-5.36,0-10.56-29.84-4.4-29.84-24.24,0-10.16,8.72-16.56,21.68-16.56A40,40,0,0,1,3076.3,552l-4.88,10.48C3065.5,559,3058.46,556.73,3054,556.73Z" transform="translate(-2538.54 -286.19)"/><line class="cls-7" x1="236.74" y1="151.05" x2="275.74" y2="151.05"/><line class="cls-7" x1="322.65" y1="231.19" x2="278.5" y2="231.19"/><line class="cls-8" x1="481.53" y1="218.95" x2="437.37" y2="218.95"/><line class="cls-7" x1="476.2" y1="288.48" x2="432.05" y2="288.48"/><line class="cls-7" x1="415.96" y1="185.03" x2="415.96" y2="229.19"/><line class="cls-7" x1="359.96" y1="135.45" x2="359.96" y2="179.6"/><path class="cls-8" d="M3154.78,412a23.39,23.39,0,0,1,23.39,23.39" transform="translate(-2538.54 -286.19)"/><path class="cls-8" d="M2710.54,553.07a17.67,17.67,0,0,1,17.67,17.67" transform="translate(-2538.54 -286.19)"/><g class="cls-9"><g class="cls-10"><rect class="cls-3" x="112.49" y="115.05" width="23.15" height="41"/></g></g><rect class="cls-11" x="114.46" y="149.81" width="19" height="5" rx="1.81" ry="1.81"/><g class="cls-12"><g class="cls-13"><rect class="cls-5" x="432.72" y="160.79" width="42.85" height="20.23"/></g></g><g class="cls-14"><g class="cls-15"><g class="cls-16"><g class="cls-17"><g class="cls-18"><g class="cls-17"><rect class="cls-19" x="436.47" y="149.21" width="59.64" height="30.05"/></g></g></g></g></g></g><g class="cls-20"><g class="cls-21"><rect class="cls-5" x="123.16" y="230.8" width="42.85" height="20.23"/></g></g><polygon class="cls-22" points="754.82 131.04 743.24 120.54 776.74 120.54 776.74 131.04 754.82 131.04"/><g class="cls-23"><rect class="cls-3" x="438.62" width="571" height="166"/><g class="cls-24"><rect class="cls-3" x="738.59" y="115.82" width="42.85" height="20.23"/></g></g><g id="_Group_" data-name="&lt;Group&gt;"><path id="_Path_" data-name="&lt;Path&gt;" class="cls-8" d="M3257.83,433.41a22.13,22.13,0,0,1-22.13,22.13" transform="translate(-2538.54 -286.19)"/></g><g id="_Group_2" data-name="&lt;Group&gt;"><path id="_Path_2" data-name="&lt;Path&gt;" class="cls-8" d="M2879.28,577.8a25.26,25.26,0,0,1,25.26,25.26" transform="translate(-2538.54 -286.19)"/></g><rect id="_Rectangle_" data-name="&lt;Rectangle&gt;" class="cls-19" x="2542.19" y="570.08" width="18.64" height="5.33" rx="1.81" ry="1.81" transform="translate(-2539.22 -283.18) rotate(-0.07)"/><path class="cls-5" d="M3144.5,504.62c0,9,7.6,17.36,17,17.36a17.23,17.23,0,0,0,17.28-17.36h13c0,16.32-13,28.4-30.08,28.4s-30.08-12.16-30.08-28.4Z" transform="translate(-2538.54 -286.19)"/><path class="cls-3" d="M2689.54,574.67c0,9,7.6,17.36,17,17.36a17.23,17.23,0,0,0,17.28-17.36h13c0,16.32-13,28.4-30.08,28.4s-30.08-12.16-30.08-28.4Z" transform="translate(-2538.54 -286.19)"/><line id="_Path_3" data-name="&lt;Path&gt;" class="cls-7" x1="168.96" y1="266.88" x2="168.96" y2="288.48"/><line id="_Path_4" data-name="&lt;Path&gt;" class="cls-7" x1="216.46" y1="185.03" x2="216.46" y2="240.02"/><line id="_Path_5" data-name="&lt;Path&gt;" class="cls-7" x1="295.21" y1="260.44" x2="295.21" y2="316.88"/><path class="cls-25" d="M2677.94,522l-4.48,4.07a3.79,3.79,0,0,0,.36.68c1.24,1.83,3.88,2,6,1.38s4.15-1.76,6.33-1.91c4.86-.34,8.87,4.31,13.87,4.56V522Z" transform="translate(-2538.54 -286.19)"/><g class="cls-26"><g class="cls-10"><rect class="cls-27" x="121.88" y="126.32" width="11.88" height="31.61"/></g></g><g class="cls-28"><g class="cls-29"><rect class="cls-3" x="550.56" y="138.58" width="22.26" height="39.43"/></g></g><g class="cls-30"><g class="cls-31"><rect class="cls-3" x="382.11" y="221.84" width="20.13" height="27.96"/></g></g><rect class="cls-5" x="398.29" y="259.44" width="13" height="23.71"/><g class="cls-32"><rect class="cls-5" x="334.3" y="257.91" width="564.36" height="126.95"/><g class="cls-33"><rect class="cls-5" x="393.35" y="255.61" width="22.88" height="31.36"/></g></g><rect class="cls-19" x="552.46" y="171.81" width="18" height="5" rx="1.74" ry="1.74"/><g class="cls-34"><g class="cls-29"><rect class="cls-27" x="559.59" y="149.42" width="11.42" height="30.39"/></g></g><rect class="cls-3" x="243.46" y="241.81" width="18" height="5" rx="1.74" ry="1.74"/><rect class="cls-5" x="3.46" y="171.81" width="18" height="5" rx="1.74" ry="1.74"/><g id="_Group_3" data-name="&lt;Group&gt;"><rect class="cls-3" x="402.37" y="138.75" width="12.58" height="37.55"/></g><g id="_Group_4" data-name="&lt;Group&gt;"><rect class="cls-35" x="402.37" y="148.28" width="12.58" height="28.02"/></g><g id="_Group_5" data-name="&lt;Group&gt;"><rect class="cls-36" x="402.37" y="148.28" width="12.58" height="7.37"/></g><g id="_Group_6" data-name="&lt;Group&gt;"><rect class="cls-3" x="527.33" y="190.22" width="12.29" height="56.05"/></g><g id="_Group_7" data-name="&lt;Group&gt;"><rect class="cls-35" x="527.33" y="190.22" width="12.29" height="28.02"/></g><g id="_Group_8" data-name="&lt;Group&gt;"><rect class="cls-36" x="527.33" y="210.87" width="12.29" height="7.37"/></g></g></svg>