<svg xmlns="http://www.w3.org/2000/svg" viewBox="0 0 434.63 61.78"><defs><style>.cls-1{fill:#1b3955;}.cls-2{fill:none;stroke:#15afe5;stroke-linecap:round;stroke-miterlimit:10;stroke-width:2px;stroke-dasharray:6 6;}.cls-3{fill:#f9a698;}.cls-4{fill:#0092dd;}.cls-5{fill:#f47056;}</style></defs><title>reportes</title><g id="Layer_1" data-name="Layer 1"><path class="cls-1" d="M2581.39,800l-8.88-16h-12.88v16H2547V744h24.32c14.64,0,23,7,23,19.44,0,8.64-3.68,14.88-10.48,18.08L2595.72,800Zm-21.76-26.56h11.68c7,0,11-3.2,11-9.6,0-6.24-4-9.36-11-9.36h-11.68Z" transform="translate(-2543.96 -741.48)"/><path class="cls-1" d="M2647.56,744v10.48h-30V766.6h27v10.48h-27v12.4h30.88V800h-43.52V744Z" transform="translate(-2543.96 -741.48)"/><path class="cls-1" d="M2704.52,763.4c0,13-8.16,20.56-22.4,20.56H2671v16h-12.64V744h23.76C2696.35,744,2704.52,751,2704.52,763.4Zm-12,.4c0-6.24-4-9.36-11-9.36H2671v19h10.48C2688.51,773.4,2692.51,770.2,2692.51,763.8Z" transform="translate(-2543.96 -741.48)"/><path class="cls-1" d="M2768.75,772c0,16.16-13,28.56-30.08,28.56s-30.08-12.32-30.08-28.56,13-28.4,30.08-28.4S2768.75,755.72,2768.75,772Zm-47.2,0a17.41,17.41,0,0,0,17.28,17.52c9.36,0,17-7.68,17-17.52a17,17,0,0,0-17-17.36A17.23,17.23,0,0,0,2721.55,772Z" transform="translate(-2543.96 -741.48)"/><path class="cls-1" d="M2811.47,800l-8.88-16h-12.88v16h-12.64V744h24.32c14.64,0,23,7,23,19.44,0,8.64-3.68,14.88-10.48,18.08L2825.79,800Zm-21.76-26.56h11.68c7,0,11-3.2,11-9.6,0-6.24-4-9.36-11-9.36h-11.68Z" transform="translate(-2543.96 -741.48)"/><path class="cls-1" d="M2876.27,744v10.72h-17.12V800h-12.64V754.68h-17V744Z" transform="translate(-2543.96 -741.48)"/><path class="cls-1" d="M2925.71,744v10.48h-30V766.6h27v10.48h-27v12.4h30.88V800h-43.52V744Z" transform="translate(-2543.96 -741.48)"/><path class="cls-1" d="M2956,754.2c-4.24,0-7.12,1.52-7.12,4.56,0,10.32,29.84,4.56,29.76,24.72,0,11-9.52,16.88-21.92,16.88a39.32,39.32,0,0,1-24.72-8.88l5-10.32c5.76,5.12,13.92,8.4,19.84,8.4,5.2,0,8.32-1.92,8.32-5.36,0-10.56-29.84-4.4-29.84-24.24,0-10.16,8.72-16.56,21.68-16.56a40,40,0,0,1,21.28,6.08L2973.39,760C2967.47,756.44,2960.43,754.2,2956,754.2Z" transform="translate(-2543.96 -741.48)"/><line class="cls-2" x1="309.57" y1="16.62" x2="309.57" y2="60.78"/><rect class="cls-3" y="56.03" width="18.56" height="4.88" rx="1.73" ry="1.73"/><g id="_Group_" data-name="&lt;Group&gt;"><rect class="cls-4" x="339.06" y="2.43" width="12.29" height="56.05"/></g><g id="_Group_2" data-name="&lt;Group&gt;"><rect class="cls-3" x="339.06" y="23.08" width="12.29" height="7.37"/></g><path class="cls-5" d="M2721.73,771.94c0,9,7.6,17.36,17,17.36A17.23,17.23,0,0,0,2756,771.94h13c0,16.32-13,28.4-30.08,28.4s-30.08-12.16-30.08-28.4Z" transform="translate(-2543.96 -741.48)"/><line class="cls-2" x1="224.97" y1="30.45" x2="164.81" y2="30.45"/><line class="cls-2" x1="67.48" y1="1" x2="67.48" y2="45.15"/></g></svg>