<svg xmlns="http://www.w3.org/2000/svg" xmlns:xlink="http://www.w3.org/1999/xlink" viewBox="0 0 458.48 160.42"><defs><style>.cls-1{fill:#f47056;}.cls-11,.cls-12,.cls-16,.cls-17,.cls-2,.cls-3,.cls-5{fill:none;}.cls-3{stroke:#0092dd;}.cls-11,.cls-12,.cls-16,.cls-17,.cls-3,.cls-5{stroke-linecap:round;stroke-miterlimit:10;stroke-width:2px;}.cls-4{fill:#0092dd;}.cls-5{stroke:#222e3b;stroke-dasharray:3.5 3.5;}.cls-6{fill:#1b3955;}.cls-7{fill:#fff;}.cls-8{fill:#a8a1e2;}.cls-9{fill:#064977;}.cls-10{fill:#f9a698;}.cls-11{stroke:#0c61a7;}.cls-11,.cls-12,.cls-16{stroke-dasharray:6 6;}.cls-12{stroke:#fff;}.cls-13{clip-path:url(#clip-path);}.cls-14{clip-path:url(#clip-path-2);}.cls-15{clip-path:url(#clip-path-3);}.cls-16{stroke:#15afe5;}.cls-17{stroke:#8a92db;}</style><clipPath id="clip-path" transform="translate(-294.56 -305.2)"><polygon id="_Clipping_Path_" data-name="&lt;Clipping Path&gt;" class="cls-1" points="548.54 351.26 536.33 361.73 572.96 361.73 572.96 351.26 548.54 351.26"/></clipPath><clipPath id="clip-path-2" transform="translate(-294.56 -305.2)"><rect id="_Rectangle_" data-name="&lt;Rectangle&gt;" class="cls-2" x="552" y="386.68" width="12.59" height="16.97"/></clipPath><clipPath id="clip-path-3" transform="translate(-294.56 -305.2)"><rect id="_Rectangle_2" data-name="&lt;Rectangle&gt;" class="cls-2" x="588.49" y="415.89" width="13.51" height="18.22"/></clipPath></defs><title>sobrenosotros</title><g id="Layer_1" data-name="Layer 1"><g id="_Group_" data-name="&lt;Group&gt;"><g id="_Group_2" data-name="&lt;Group&gt;"><line class="cls-3" x1="5.34" y1="153.92" x2="287.53" y2="153.92"/><rect class="cls-4" x="4.34" y="147.42" width="2" height="13"/><rect class="cls-4" x="286.53" y="147.42" width="2" height="13"/></g><line id="_Path_" data-name="&lt;Path&gt;" class="cls-5" x1="4.95" y1="132.06" x2="4.95" y2="142.44"/><line id="_Path_2" data-name="&lt;Path&gt;" class="cls-5" x1="165.28" y1="132.06" x2="165.28" y2="142.44"/></g><path class="cls-6" d="M318.56,316c-4.24,0-7.12,1.52-7.12,4.56,0,10.32,29.84,4.56,29.76,24.72,0,11-9.52,16.88-21.92,16.88a39.32,39.32,0,0,1-24.72-8.88l5-10.32c5.76,5.12,13.92,8.4,19.84,8.4,5.2,0,8.32-1.92,8.32-5.36,0-10.56-29.84-4.4-29.84-24.24,0-10.16,8.72-16.56,21.68-16.56a40,40,0,0,1,21.28,6.08L336,321.76C330.08,318.24,323,316,318.56,316Z" transform="translate(-294.56 -305.2)"/><path class="cls-6" d="M406.24,333.76c0,16.16-13,28.56-30.08,28.56S346.08,350,346.08,333.76s13-28.4,30.08-28.4S406.24,317.52,406.24,333.76Zm-47.2,0a17.41,17.41,0,0,0,17.28,17.52c9.36,0,17-7.68,17-17.52a17,17,0,0,0-17-17.36A17.23,17.23,0,0,0,359,333.76Z" transform="translate(-294.56 -305.2)"/><path class="cls-6" d="M460.32,319.76c0,6-3.68,10.72-9.68,12.32,7.28,1.36,11.68,6.8,11.68,14.16,0,9.6-8.16,15.52-21.12,15.52H414.56v-56h25.76C452.64,305.76,460.32,311.12,460.32,319.76Zm-13,2.32c0-3.84-2.88-6.08-7.68-6H427.2v12.24h12.48C444.48,328.32,447.36,326,447.36,322.08Zm1.92,22.56c0-4.08-3.68-6.56-9.6-6.48H427.2v13.28h12.48C445.6,351.44,449.28,349,449.28,344.64Z" transform="translate(-294.56 -305.2)"/><path class="cls-6" d="M505.92,361.76l-8.88-16H484.16v16H471.52v-56h24.32c14.64,0,23,7,23,19.44,0,8.64-3.68,14.88-10.48,18.08l11.92,18.48ZM484.16,335.2h11.68c7,0,11-3.2,11-9.6,0-6.24-4-9.36-11-9.36H484.16Z" transform="translate(-294.56 -305.2)"/><path class="cls-6" d="M572.08,305.76v10.48h-30V328.4h27v10.48h-27v12.4H573v10.48H529.44v-56Z" transform="translate(-294.56 -305.2)"/><path class="cls-6" d="M310.64,375.76l27.2,36v-36h12v56H338.32L311.2,395.84v35.92H299.12v-56Z" transform="translate(-294.56 -305.2)"/><path class="cls-6" d="M418.32,403.76c0,16.16-13,28.56-30.08,28.56S358.16,420,358.16,403.76s13-28.4,30.08-28.4S418.32,387.52,418.32,403.76Zm-47.2,0a17.41,17.41,0,0,0,17.28,17.52c9.36,0,17-7.68,17-17.52a17,17,0,0,0-17-17.36A17.23,17.23,0,0,0,371.12,403.76Z" transform="translate(-294.56 -305.2)"/><path class="cls-6" d="M446.08,386c-4.24,0-7.12,1.52-7.12,4.56,0,10.32,29.84,4.56,29.76,24.72,0,11-9.52,16.88-21.92,16.88a39.32,39.32,0,0,1-24.72-8.88l5-10.32c5.76,5.12,13.92,8.4,19.84,8.4,5.2,0,8.32-1.92,8.32-5.36,0-10.56-29.84-4.4-29.84-24.24,0-10.16,8.72-16.56,21.68-16.56a40,40,0,0,1,21.28,6.08l-4.88,10.48C457.6,388.24,450.56,386,446.08,386Z" transform="translate(-294.56 -305.2)"/><path class="cls-6" d="M533.76,403.76c0,16.16-13,28.56-30.08,28.56S473.6,420,473.6,403.76s13-28.4,30.08-28.4S533.76,387.52,533.76,403.76Zm-47.2,0a17.41,17.41,0,0,0,17.28,17.52c9.36,0,17-7.68,17-17.52a17,17,0,0,0-17-17.36A17.23,17.23,0,0,0,486.56,403.76Z" transform="translate(-294.56 -305.2)"/><path class="cls-6" d="M581.76,375.76v10.72H564.64v45.28H552V386.48H535V375.76Z" transform="translate(-294.56 -305.2)"/><path class="cls-6" d="M623,431.76l-8.88-16H601.2v16H588.56v-56h24.32c14.64,0,23,7,23,19.44,0,8.64-3.68,14.88-10.48,18.08l11.92,18.48ZM601.2,405.2h11.68c7,0,11-3.2,11-9.6,0-6.24-4-9.36-11-9.36H601.2Z" transform="translate(-294.56 -305.2)"/><path class="cls-6" d="M702.64,403.76c0,16.16-13,28.56-30.08,28.56S642.48,420,642.48,403.76s13-28.4,30.08-28.4S702.64,387.52,702.64,403.76Zm-47.2,0a17.41,17.41,0,0,0,17.28,17.52c9.36,0,17-7.68,17-17.52a17,17,0,0,0-17-17.36A17.23,17.23,0,0,0,655.44,403.76Z" transform="translate(-294.56 -305.2)"/><path class="cls-6" d="M730.4,386c-4.24,0-7.12,1.52-7.12,4.56,0,10.32,29.84,4.56,29.76,24.72,0,11-9.52,16.88-21.92,16.88a39.32,39.32,0,0,1-24.72-8.88l5-10.32c5.76,5.12,13.92,8.4,19.84,8.4,5.2,0,8.32-1.92,8.32-5.36,0-10.56-29.84-4.4-29.84-24.24,0-10.16,8.72-16.56,21.68-16.56a40,40,0,0,1,21.28,6.08l-4.88,10.48C741.92,388.24,734.88,386,730.4,386Z" transform="translate(-294.56 -305.2)"/><rect id="_Rectangle_3" data-name="&lt;Rectangle&gt;" class="cls-4" x="43.34" y="70.54" width="11.87" height="21.28"/><rect id="_Rectangle_4" data-name="&lt;Rectangle&gt;" class="cls-4" x="177" y="0.81" width="13.15" height="31"/><path id="_Path_3" data-name="&lt;Path&gt;" class="cls-7" d="M481,318.06a.94.94,0,0,0-.94-.94h0a.94.94,0,0,0-.94.94v19.73a.94.94,0,0,0,.94.94h0a.94.94,0,0,0,.94-.94Z" transform="translate(-294.56 -305.2)"/><rect id="_Rectangle_5" data-name="&lt;Rectangle&gt;" class="cls-8" x="174.42" y="30.86" width="18.64" height="5.33" rx="2.66" ry="2.66"/><g id="_Group_3" data-name="&lt;Group&gt;"><rect class="cls-4" x="120" y="0.54" width="13.26" height="56.05"/></g><g id="_Group_4" data-name="&lt;Group&gt;"><rect class="cls-9" x="120" y="28.56" width="13.26" height="28.02"/></g><g id="_Group_5" data-name="&lt;Group&gt;"><rect class="cls-10" x="120" y="28.56" width="13.26" height="7.37"/></g><line id="_Path_4" data-name="&lt;Path&gt;" class="cls-11" x1="240.65" y1="46.31" x2="240.65" y2="10.24"/><g id="_Group_6" data-name="&lt;Group&gt;"><path id="_Path_5" data-name="&lt;Path&gt;" class="cls-12" d="M376.27,312.16a26.56,26.56,0,0,1,26.56,26.56" transform="translate(-294.56 -305.2)"/></g><line id="_Path_6" data-name="&lt;Path&gt;" class="cls-12" x1="62.26" y1="97.52" x2="89.98" y2="97.52"/><g id="_Clip_Group_" data-name="&lt;Clip Group&gt;"><polygon id="_Clipping_Path_2" data-name="&lt;Clipping Path&gt;" class="cls-1" points="253.98 46.06 241.77 56.53 278.4 56.53 278.4 46.06 253.98 46.06"/><g class="cls-13"><g id="_Group_7" data-name="&lt;Group&gt;"><path class="cls-8" d="M539.84,348.22c1.65.05,2.66,1.86,2.95,3.49s.22,3.4,1.16,4.76c1.38,2,4.32,2.17,6.67,1.51s4.55-1.93,7-2.1c6.2-.43,11.64,6.35,17.66,4.78,3.3-.86,5.53-4,8.73-5.2,2.42-.88,5.08-.52,7.66-.55a4.91,4.91,0,0,0,2.27-.43,3.91,3.91,0,0,0,1.77-2.56c1.08-4.27-2.3-8.49-6.16-10.62-6.44-3.55-14.23-3.42-21.55-2.74a180.71,180.71,0,0,0-20.61,3.11,8.94,8.94,0,0,0-4.18,1.68c-1.14,1-1.69,2.85-.79,4.07" transform="translate(-294.56 -305.2)"/></g></g></g><rect id="_Rectangle_6" data-name="&lt;Rectangle&gt;" class="cls-4" x="293.93" y="110.76" width="13.51" height="17.01"/><rect id="_Rectangle_7" data-name="&lt;Rectangle&gt;" class="cls-10" x="257.44" y="81.48" width="12.59" height="16.97"/><g id="_Clip_Group_2" data-name="&lt;Clip Group&gt;"><g class="cls-14"><g id="_Group_8" data-name="&lt;Group&gt;"><path class="cls-8" d="M558.34,376.21a40.93,40.93,0,0,0,2.6,25.22c1.42,3.18,3.92,6.57,7.41,6.47a6.64,6.64,0,0,0,5.29-3.62,17.32,17.32,0,0,0,1.73-6.44c.47-3.9.7-7.95-.59-11.65a15.37,15.37,0,0,0-16.9-9.7" transform="translate(-294.56 -305.2)"/></g></g></g><g id="_Clip_Group_3" data-name="&lt;Clip Group&gt;"><g class="cls-15"><g id="_Group_9" data-name="&lt;Group&gt;"><path class="cls-1" d="M578.81,408.38c2.26,3.87,4.55,7.79,7.72,11s7.36,5.57,11.84,5.64c6.9.11,12.78-5.2,16.32-11.12a6.45,6.45,0,0,0,1.14-3.14c0-2.68-2.82-4.38-5.36-5.24a39.46,39.46,0,0,0-25.29.07" transform="translate(-294.56 -305.2)"/></g></g></g><g id="_Group_10" data-name="&lt;Group&gt;"><path id="_Path_7" data-name="&lt;Path&gt;" class="cls-12" d="M525.06,410.33a16.19,16.19,0,0,1-16.19,16.19" transform="translate(-294.56 -305.2)"/></g><line id="_Path_8" data-name="&lt;Path&gt;" class="cls-16" x1="210.44" y1="71.76" x2="210.44" y2="124.91"/><line id="_Path_9" data-name="&lt;Path&gt;" class="cls-17" x1="57.69" y1="28.28" x2="106.64" y2="28.28"/><line id="_Path_10" data-name="&lt;Path&gt;" class="cls-16" x1="347.4" y1="98.34" x2="407.22" y2="98.34"/></g></svg>