<svg xmlns="http://www.w3.org/2000/svg" viewBox="0 0 261.82 61.82"><defs><style>.cls-1{fill:#fff;}.cls-2{fill:#f47056;}.cls-3{fill:#a8a1e2;}.cls-4{fill:none;stroke:#15afe5;stroke-linecap:round;stroke-miterlimit:10;stroke-width:2px;stroke-dasharray:6 6;}.cls-5{fill:#0092dd;}</style></defs><title>video</title><g id="Layer_1" data-name="Layer 1"><path class="cls-1" d="M326.6,691.88l-22-56h13.6l15.28,42.24,15.36-42.24h13l-22.24,56Z" transform="translate(-304.6 -632.96)"/><path class="cls-1" d="M368,691.88v-56h12.64v56Z" transform="translate(-304.6 -632.96)"/><path class="cls-1" d="M416.84,635.88c17.36,0,29.44,11.44,29.44,28s-12.24,28-29.92,28H393.08v-56Zm-11.12,45.36h11.44c9.36,0,16.24-7,16.24-17.28s-7.2-17.44-16.8-17.44H405.72Z" transform="translate(-304.6 -632.96)"/><path class="cls-1" d="M467.24,646.36v12.16h27V669h-27v12.4h30.88v10.48H454.6v-56h42.64v10.48Z" transform="translate(-304.6 -632.96)"/><path class="cls-1" d="M564.2,663.88c0,16.16-13,28.56-30.08,28.56S504,680.12,504,663.88s13-28.4,30.08-28.4S564.2,647.64,564.2,663.88Zm-47.2,0a17.41,17.41,0,0,0,17.28,17.52c9.36,0,17-7.68,17-17.52a17,17,0,0,0-17-17.36A17.23,17.23,0,0,0,517,663.88Z" transform="translate(-304.6 -632.96)"/><g id="_Clip_Group_" data-name="&lt;Clip Group&gt;"><polygon id="_Clipping_Path_" data-name="&lt;Clipping Path&gt;" class="cls-2" points="168.97 48.4 156.69 58.92 193.52 58.92 193.52 48.4 168.97 48.4"/></g><path class="cls-3" d="M473.57,680.36l-5.27,4.51a8.64,8.64,0,0,0,4.72,0c2.53-.71,4.87-2.08,7.48-2.26a9.06,9.06,0,0,1,1.15,0c5.73.29,10.91,5.74,16.47,5.38v-7.6Z" transform="translate(-304.6 -632.96)"/><path class="cls-3" d="M468.3,685.87h-.05l0,0,0,0Z" transform="translate(-304.6 -632.96)"/><path class="cls-2" d="M551.24,663.88a17,17,0,0,0-17-17.36A17.23,17.23,0,0,0,517,663.88H504c0-16.32,13-28.4,30.08-28.4s30.08,12.16,30.08,28.4Z" transform="translate(-304.6 -632.96)"/><line id="_Path_" data-name="&lt;Path&gt;" class="cls-4" x1="201" y1="30.92" x2="260.82" y2="30.92"/><line id="_Path_2" data-name="&lt;Path&gt;" class="cls-4" x1="28.91" y1="1" x2="28.91" y2="60.82"/><rect id="_Rectangle_" data-name="&lt;Rectangle&gt;" class="cls-5" x="367.7" y="660.78" width="13.15" height="31" transform="translate(443.95 719.6) rotate(180)"/><path id="_Path_3" data-name="&lt;Path&gt;" class="cls-1" d="M369.58,679.57a.94.94,0,0,0,.94.94h0a.94.94,0,0,0,.94-.94V659.84a.94.94,0,0,0-.94-.94h0a.94.94,0,0,0-.94.94Z" transform="translate(-304.6 -632.96)"/><rect id="_Rectangle_2" data-name="&lt;Rectangle&gt;" class="cls-3" x="364.96" y="657.24" width="18.64" height="5.33" rx="1.81" ry="1.81" transform="translate(443.95 686.84) rotate(180)"/><g id="_Group_" data-name="&lt;Group&gt;"><path id="_Path_4" data-name="&lt;Path&gt;" class="cls-4" d="M438.74,666.32a19.77,19.77,0,0,1-19.6,19.93" transform="translate(-304.6 -632.96)"/></g></g></svg>